<?xml version="1.0" encoding="utf-8"?>
<!--Designed by Vexels.com - 2017 All Rights Reserved - https://vexels.com/terms-and-conditions/-->
<svg version="1.1" id="Layer_1" xmlns="http://www.w3.org/2000/svg" xmlns:xlink="http://www.w3.org/1999/xlink" x="0px" y="0px"
	 width="1200px" height="1200px" viewBox="0 0 1200 1200" enable-background="new 0 0 1200 1200" xml:space="preserve">
<g>
	<linearGradient id="SVGID_1_" gradientUnits="userSpaceOnUse" x1="841.918" y1="727.0547" x2="1048.3613" y2="727.0547">
		<stop  offset="0" style="stop-color:#000000"/>
		<stop  offset="0.3526" style="stop-color:#020202"/>
		<stop  offset="0.5325" style="stop-color:#0A0A0A"/>
		<stop  offset="0.6734" style="stop-color:#171717"/>
		<stop  offset="0.794" style="stop-color:#2A2A2A"/>
		<stop  offset="0.9006" style="stop-color:#424242"/>
		<stop  offset="0.9976" style="stop-color:#606060"/>
		<stop  offset="1" style="stop-color:#616161"/>
	</linearGradient>
	<path fill="url(#SVGID_1_)" d="M1045.789,706.903c-13.354,12.201-22.717,21.432-22.717,21.432
		c-27.574-22.319-54.75,4.478-61.738,35.913c-4.037,18.17-2.506,26.51,0.932,27.511c2.531,0.754,6.057-2.398,9.164-8.477
		c7.387-14.375,28.727-30.28,29.902-17.479c1.154,12.824-22.715,72.809-22.715,72.809l7.52,0.354
		c-0.223,0.398-0.332,0.62-0.332,0.62h-8.055c-6.477,0-11.779,4.457-11.779,9.94c0,5.455,5.303,9.937,11.779,9.937h8.432
		c0,0-20.52,35.184-44.102,21.274c-23.582-13.886-22.207-41.151-22.207-41.151s-26.643,30.213-48.938,22.627
		c-21.695-7.365-28.662-35.317-29.018-36.868h25.623c5.945,0,10.826-4.481,10.826-9.938c0-5.482-4.881-9.964-10.826-9.964h-0.975
		c1.818-3.259,31.145-55.546,44.434-55.014c13.688,0.532,7.609,43.988,7.609,43.988s1.375,23.361,25.422-26.241
		c17.57-36.229,16.395-65.001-2.816-73.672c5.521-16.063,25.51-80.572,6.477-124.387l97.521,44.611
		C1050.758,652.753,1047.674,690.556,1045.789,706.903z"/>
	<line fill="none" x1="947.691" y1="570.118" x2="945.273" y2="569.01"/>
	<g>
		<g>
			<g>
				<linearGradient id="SVGID_2_" gradientUnits="userSpaceOnUse" x1="563.9766" y1="342.2886" x2="638.7813" y2="342.2886">
					<stop  offset="0" style="stop-color:#000000"/>
					<stop  offset="1" style="stop-color:#FFFFFF"/>
				</linearGradient>
				<path fill="url(#SVGID_2_)" d="M638.781,342.292c0,4.699-4.547,8.537-10.117,8.537h-54.572c-5.566,0-10.115-3.838-10.115-8.537
					c0-4.615,4.371-8.387,9.807-8.521c0.109-0.023,0.199-0.023,0.309-0.023h54.572C634.234,333.748,638.781,337.586,638.781,342.292
					z"/>
				<g>
					<linearGradient id="SVGID_3_" gradientUnits="userSpaceOnUse" x1="601.0195" y1="281.126" x2="684.459" y2="281.126">
						<stop  offset="0" style="stop-color:#000000"/>
						<stop  offset="0.0613" style="stop-color:#0E0E0E"/>
						<stop  offset="0.1778" style="stop-color:#343434"/>
						<stop  offset="0.3358" style="stop-color:#707070"/>
						<stop  offset="0.47" style="stop-color:#A8A8A8"/>
						<stop  offset="0.4758" style="stop-color:#A4A4A4"/>
						<stop  offset="0.5372" style="stop-color:#797979"/>
						<stop  offset="0.6017" style="stop-color:#535353"/>
						<stop  offset="0.6686" style="stop-color:#353535"/>
						<stop  offset="0.7385" style="stop-color:#1E1E1E"/>
						<stop  offset="0.8131" style="stop-color:#0D0D0D"/>
						<stop  offset="0.8952" style="stop-color:#030303"/>
						<stop  offset="1" style="stop-color:#000000"/>
					</linearGradient>
					<path fill="url(#SVGID_3_)" d="M682.684,271.145c-6.5,24.805-14.885,35.807-25.201,33.744c-4.459-0.888-3.66-4.06-3.262-17.881
						c0.4-13.819-1.996-25.866-8.939-24.801c-19.256,2.951-19.1,61.739-18.943,71.542h-24.957c-0.4,0-0.557-25.622,0-34.138
						c1.197-18.572,6.588-56.994,33.365-67.885c2.748-1.129,5.699-1.953,8.916-2.441
						C678.203,224.005,689.184,246.367,682.684,271.145z"/>
					<path fill="none" d="M626.381,335.125c0,0-0.021-0.489-0.043-1.376"/>
					<path fill="none" d="M615.492,333.755c0,0-0.592-67.956,16.436-80.257c15.697-11.344,36.697-5.402,32.197,29.718"/>
				</g>
				<g>
					<linearGradient id="SVGID_4_" gradientUnits="userSpaceOnUse" x1="515.6387" y1="281.1377" x2="599.0771" y2="281.1377">
						<stop  offset="0" style="stop-color:#000000"/>
						<stop  offset="0.0613" style="stop-color:#0E0E0E"/>
						<stop  offset="0.1778" style="stop-color:#343434"/>
						<stop  offset="0.3358" style="stop-color:#707070"/>
						<stop  offset="0.47" style="stop-color:#A8A8A8"/>
						<stop  offset="0.4758" style="stop-color:#A4A4A4"/>
						<stop  offset="0.5372" style="stop-color:#797979"/>
						<stop  offset="0.6017" style="stop-color:#535353"/>
						<stop  offset="0.6686" style="stop-color:#353535"/>
						<stop  offset="0.7385" style="stop-color:#1E1E1E"/>
						<stop  offset="0.8131" style="stop-color:#0D0D0D"/>
						<stop  offset="0.8952" style="stop-color:#030303"/>
						<stop  offset="1" style="stop-color:#000000"/>
					</linearGradient>
					<path fill="url(#SVGID_4_)" d="M598.717,333.748h-24.625c-0.109,0-0.199,0-0.309,0.023c0.133-6.035,1.02-68.504-18.969-71.566
						c-6.943-1.065-9.34,10.982-8.939,24.801c0.398,13.822,1.197,16.994-3.262,17.881c-10.314,2.063-18.699-8.939-25.199-33.744
						c-6.5-24.777,4.48-47.14,39.02-41.861c4.328,0.667,8.209,1.932,11.693,3.708c24.379,12.332,29.416,48.694,30.59,66.619
						C599.271,308.126,599.117,333.748,598.717,333.748z"/>
					<path fill="none" d="M573.783,334.237c0,0,0-0.154,0-0.466"/>
					<path fill="none" d="M584.605,333.755c0,0,0.592-67.956-16.436-80.257c-15.697-11.344-36.699-5.402-32.195,29.718"/>
				</g>
				<linearGradient id="SVGID_5_" gradientUnits="userSpaceOnUse" x1="568.127" y1="235.8843" x2="634.7461" y2="235.8843">
					<stop  offset="0" style="stop-color:#3A3738"/>
					<stop  offset="0.565" style="stop-color:#EFEFEF"/>
					<stop  offset="1" style="stop-color:#3A3738"/>
				</linearGradient>
				<path fill="url(#SVGID_5_)" d="M634.746,206.17v25.555c-26.777,10.892-32.168,49.313-33.365,67.885
					c-0.557,8.517-0.4,34.138,0,34.138h-2.664c0.4,0,0.555-25.622,0-34.138c-1.174-17.925-6.211-54.288-30.59-66.619V206.17
					c0-5.546,2.105-14.11,4.701-19.033l23.893-45.436c1.309-2.461,2.994-3.681,4.725-3.681c1.688,0,3.416,1.219,4.705,3.681
					l23.891,45.436C632.637,192.06,634.746,200.624,634.746,206.17z"/>
				<line fill="none" x1="634.746" y1="232.991" x2="634.746" y2="231.725"/>
				<line fill="none" x1="601.445" y1="138.021" x2="601.445" y2="136.624"/>
				<line fill="none" x1="601.445" y1="291.022" x2="601.445" y2="209.898"/>
			</g>
			<g>
				<g>
					<path fill="none" d="M633.879,802.252c0,0-0.045-1.132-0.088-3.151"/>
					<path fill="none" d="M619.564,799.09c0,0-0.746-85.88,20.773-101.431c19.84-14.331,46.381-6.825,40.689,37.562"/>
				</g>
				<g>
					<path fill="none" d="M566.883,799.124c-0.021,1.996-0.045,3.128-0.045,3.128"/>
					<path fill="none" d="M580.531,799.09c0,0,0.748-85.88-20.771-101.431c-19.84-14.331-46.381-6.825-40.689,37.562"/>
				</g>
				<path fill="none" d="M599.783,548.888c0,0,0.451-0.857,1.008-1.906c0.557-1.052,1.453-1.062,1.996-0.023
					c0.545,1.035,0.988,1.886,0.988,1.886"/>
				<path fill="none" d="M643.904,670.146c0,0.087,0,0.422,0,0.798c0,0.422,0,0.776,0,0.776"/>
				<line fill="none" x1="601.803" y1="745.077" x2="601.803" y2="549.963"/>
			</g>
			<linearGradient id="SVGID_6_" gradientUnits="userSpaceOnUse" x1="338.3457" y1="502.0371" x2="574.6035" y2="502.0371">
				<stop  offset="0" style="stop-color:#000000"/>
				<stop  offset="1" style="stop-color:#FFFFFF"/>
			</linearGradient>
			<path fill="url(#SVGID_6_)" d="M574.604,364.32c-0.045,4.481-0.135,9.847-0.334,15.748c0,0-26.441,38.6-124.473,101.98
				c-35.449,22.915-56.656,43.171-69.725,59.787c-0.088,0.087-0.154,0.177-0.199,0.265c-0.088,0.09-0.154,0.177-0.199,0.268
				c-0.088,0.087-0.176,0.178-0.199,0.265h-0.023c-0.088,0.09-0.154,0.178-0.201,0.268c-9.537,12.312-14.596,22.56-17.701,30.324
				c-13.111,32.765-5.391,66.532-5.391,66.532c-4.459-5.258-9.16-10.252-13.91-14.931c0,0,0-0.023-0.021-0.043
				c-0.287-0.58-3.838-8.075-3.881-34.387c-0.021-12.978,5.99-27.042,16.594-41.684c0.086-0.111,0.156-0.221,0.244-0.332
				c0.064-0.091,0.154-0.201,0.221-0.312c0.066-0.087,0.156-0.198,0.244-0.312c0.066-0.087,0.133-0.198,0.221-0.308
				c25.025-33.831,74.053-70.746,128.557-104.931C560.584,394.754,573.85,366.071,574.604,364.32z"/>
			<path fill="none" d="M546.541,668.726c0,0-0.154-0.509-0.422-1.464"/>
			<linearGradient id="SVGID_7_" gradientUnits="userSpaceOnUse" x1="535.917" y1="510.3315" x2="583.3438" y2="510.3315">
				<stop  offset="0" style="stop-color:#000000"/>
				<stop  offset="1" style="stop-color:#FFFFFF"/>
			</linearGradient>
			<path fill="url(#SVGID_7_)" d="M550.289,522.734c-13.064,67.929,0.91,130.706,5.125,147.1c-2.883-1.132-5.988-1.996-9.295-2.572
				c-2.793-10.182-18.367-72.075-4.59-144.216c0-0.023,0-0.023,0-0.023c0-0.02,0-0.043,0.021-0.043c0-0.023,0-0.047,0-0.047
				c0-0.021,0-0.021,0-0.021c5.014-26.177,12.732-48.071,21.65-66.907c7.676-16.194,10.248-50.824,11.068-75.937
				c0.199-5.901,0.289-11.267,0.334-15.748v-0.023c0.043-3.949,0.043-7.211,0.021-9.539c0-2.509-0.021-3.929-0.021-3.929h8.695
				c0,0,1.398,78.201-11.402,105.175c-10.604,22.362-17.414,44.946-21.584,66.619c0,0,0,0-0.023,0.021c0,0,0,0,0,0.023
				c0,0,0,0.023,0,0.043C550.289,522.71,550.289,522.71,550.289,522.734z"/>
			<path fill="none" d="M556.547,673.984c0,0-0.422-1.444-1.133-4.15"/>
			<path fill="none" d="M656.752,666.84c-0.334,1.243-0.535,1.886-0.535,1.886"/>
			<path fill="none" d="M648.145,668.659c-0.4,1.486-0.623,2.264-0.623,2.264"/>
			<linearGradient id="SVGID_8_" gradientUnits="userSpaceOnUse" x1="574.6465" y1="522.2227" x2="628.1113" y2="522.2227">
				<stop  offset="0" style="stop-color:#000000"/>
				<stop  offset="1" style="stop-color:#FFFFFF"/>
			</linearGradient>
			<path fill="url(#SVGID_8_)" d="M628.111,522.225v0.087c-0.045,13.933-10.736,25.333-24.336,26.532
				c-0.775,0.067-1.576,0.11-2.395,0.11c-0.535,0-1.066-0.02-1.598-0.067c-14.02-0.797-25.137-12.422-25.137-26.663v-0.023
				c0.023-13.645,10.205-24.868,23.404-26.509h0.021c1.09-0.134,2.197-0.201,3.309-0.201c1.107,0,2.217,0.067,3.303,0.201h0.023
				C617.906,497.333,628.111,508.557,628.111,522.225z"/>
			<linearGradient id="SVGID_9_" gradientUnits="userSpaceOnUse" x1="581.0137" y1="475.6152" x2="621.7441" y2="475.6152">
				<stop  offset="0" style="stop-color:#000000"/>
				<stop  offset="1" style="stop-color:#FFFFFF"/>
			</linearGradient>
			<path fill="url(#SVGID_9_)" d="M621.744,475.614c0,10.118-7.365,18.504-17.037,20.079h-0.023
				c-1.086,0.198-2.174,0.288-3.303,0.288c-1.133,0-2.219-0.09-3.309-0.288h-0.021c-9.672-1.574-17.037-9.96-17.037-20.079
				c0-10.403,7.809-19.01,17.904-20.209c0.82-0.111,1.641-0.154,2.463-0.154c0.818,0,1.641,0.043,2.461,0.154
				C613.936,456.604,621.744,465.211,621.744,475.614z"/>
			<linearGradient id="SVGID_10_" gradientUnits="userSpaceOnUse" x1="585.9844" y1="440.2324" x2="616.7754" y2="440.2324">
				<stop  offset="0" style="stop-color:#000000"/>
				<stop  offset="1" style="stop-color:#FFFFFF"/>
			</linearGradient>
			<path fill="url(#SVGID_10_)" d="M616.775,440.233c0,7.653-5.613,14.02-12.934,15.172c-0.799,0.154-1.619,0.224-2.461,0.224
				c-0.844,0-1.666-0.07-2.463-0.224c-7.322-1.152-12.934-7.519-12.934-15.172c0-7.834,5.855-14.311,13.42-15.242
				c0.645-0.111,1.309-0.154,1.977-0.154c0.664,0,1.33,0.043,1.973,0.154C610.918,425.922,616.775,432.399,616.775,440.233z"/>
			<linearGradient id="SVGID_11_" gradientUnits="userSpaceOnUse" x1="590.332" y1="414.1323" x2="612.4043" y2="414.1323">
				<stop  offset="0" style="stop-color:#000000"/>
				<stop  offset="1" style="stop-color:#FFFFFF"/>
			</linearGradient>
			<path fill="url(#SVGID_11_)" d="M612.404,414.123c0,5.412-3.881,9.937-9.051,10.868c-0.643,0.11-1.309,0.177-1.973,0.177
				c-0.668,0-1.332-0.067-1.977-0.177c-5.168-0.931-9.072-5.456-9.072-10.868c0-5.57,4.146-10.185,9.539-10.915h0.021
				c0.488-0.067,0.977-0.111,1.488-0.111c0.508,0,0.996,0.043,1.484,0.111h0.021C608.277,403.938,612.404,408.553,612.404,414.123z"
				/>
			<linearGradient id="SVGID_12_" gradientUnits="userSpaceOnUse" x1="593.9023" y1="395.874" x2="608.8535" y2="395.874">
				<stop  offset="0" style="stop-color:#000000"/>
				<stop  offset="1" style="stop-color:#FFFFFF"/>
			</linearGradient>
			<path fill="url(#SVGID_12_)" d="M608.854,395.886c0,3.617-2.572,6.635-5.967,7.322h-0.021c-0.488,0.11-0.977,0.154-1.484,0.154
				c-0.512,0-1-0.043-1.488-0.154h-0.021c-3.395-0.687-5.969-3.705-5.969-7.322c0-4.149,3.35-7.499,7.479-7.499
				C605.506,388.387,608.854,391.736,608.854,395.886z"/>
			<g>
				<linearGradient id="SVGID_13_" gradientUnits="userSpaceOnUse" x1="266.1367" y1="550.5977" x2="319.5996" y2="550.5977">
					<stop  offset="0" style="stop-color:#000000"/>
					<stop  offset="1" style="stop-color:#FFFFFF"/>
				</linearGradient>
				<path fill="url(#SVGID_13_)" d="M319.6,550.596c0,2.529-0.355,4.994-1.02,7.298c-0.023,0.134-0.066,0.245-0.088,0.355
					c-0.047,0.134-0.068,0.244-0.113,0.355c-0.043,0.134-0.088,0.268-0.133,0.378c-0.021,0.11-0.066,0.244-0.111,0.355
					c-3.615,10.47-13.576,17.992-25.266,17.992c-5.059,0-9.783-1.4-13.822-3.861c-0.133-0.067-0.266-0.154-0.398-0.245
					c-0.133-0.067-0.266-0.154-0.4-0.245l-0.398-0.265c-0.111-0.09-0.244-0.154-0.354-0.244
					c-6.879-4.836-11.359-12.821-11.359-21.874c0-0.489,0.021-0.955,0.045-1.44c0.732-14.087,12.4-25.29,26.688-25.29
					c0.574,0,1.152,0.02,1.707,0.067C308.529,524.797,319.6,536.422,319.6,550.596z"/>
				<linearGradient id="SVGID_14_" gradientUnits="userSpaceOnUse" x1="308.5957" y1="496.0137" x2="355.1172" y2="496.0137">
					<stop  offset="0" style="stop-color:#000000"/>
					<stop  offset="1" style="stop-color:#FFFFFF"/>
				</linearGradient>
				<path fill="url(#SVGID_14_)" d="M355.117,496c0,12.844-10.404,23.273-23.25,23.273c-7.498,0-14.152-3.55-18.436-9.053
					c-3.037-3.925-4.836-8.872-4.836-14.221c0-12.841,10.426-23.247,23.271-23.247c8.852,0,16.549,4.947,20.477,12.245
					C354.119,488.28,355.117,492.032,355.117,496z"/>
				<linearGradient id="SVGID_15_" gradientUnits="userSpaceOnUse" x1="351.832" y1="455.7148" x2="392.5625" y2="455.7148">
					<stop  offset="0" style="stop-color:#000000"/>
					<stop  offset="1" style="stop-color:#FFFFFF"/>
				</linearGradient>
				<path fill="url(#SVGID_15_)" d="M392.563,455.716c0,2.13-0.334,4.169-0.934,6.102c-2.594,8.272-10.313,14.261-19.432,14.261
					c-1.484,0-2.928-0.154-4.303-0.466c-9.184-1.973-16.063-10.138-16.063-19.897c0-11.247,9.117-20.367,20.365-20.367
					C383.443,435.35,392.563,444.47,392.563,455.716z"/>
				<linearGradient id="SVGID_16_" gradientUnits="userSpaceOnUse" x1="437.6484" y1="408.6245" x2="468.4434" y2="408.6245">
					<stop  offset="0" style="stop-color:#000000"/>
					<stop  offset="1" style="stop-color:#FFFFFF"/>
				</linearGradient>
				<path fill="url(#SVGID_16_)" d="M468.443,408.623c0,8.507-6.893,15.399-15.396,15.399s-15.398-6.893-15.398-15.399
					c0-8.5,6.895-15.396,15.398-15.396S468.443,400.123,468.443,408.623z"/>
				<linearGradient id="SVGID_17_" gradientUnits="userSpaceOnUse" x1="397.6641" y1="427.8428" x2="433.5156" y2="427.8428">
					<stop  offset="0" style="stop-color:#000000"/>
					<stop  offset="1" style="stop-color:#FFFFFF"/>
				</linearGradient>
				<path fill="url(#SVGID_17_)" d="M433.516,427.854c0,9.894-8.033,17.902-17.926,17.902c-9.895,0-17.926-8.008-17.926-17.902
					c0-2.796,0.645-5.436,1.797-7.787c2.885-5.992,9.029-10.138,16.129-10.138C425.482,409.929,433.516,417.96,433.516,427.854z"/>
				<linearGradient id="SVGID_18_" gradientUnits="userSpaceOnUse" x1="480.0762" y1="393.9287" x2="502.1523" y2="393.9287">
					<stop  offset="0" style="stop-color:#000000"/>
					<stop  offset="1" style="stop-color:#FFFFFF"/>
				</linearGradient>
				<path fill="url(#SVGID_18_)" d="M502.152,393.927c0,6.096-4.941,11.039-11.037,11.039s-11.039-4.943-11.039-11.039
					c0-6.092,4.943-11.036,11.039-11.036S502.152,387.834,502.152,393.927z"/>
				<linearGradient id="SVGID_19_" gradientUnits="userSpaceOnUse" x1="512.0156" y1="382.8896" x2="526.9863" y2="382.8896">
					<stop  offset="0" style="stop-color:#000000"/>
					<stop  offset="1" style="stop-color:#FFFFFF"/>
				</linearGradient>
				<path fill="url(#SVGID_19_)" d="M526.986,382.891c0,4.133-3.352,7.482-7.486,7.482s-7.484-3.349-7.484-7.482
					c0-4.136,3.35-7.485,7.484-7.485S526.986,378.755,526.986,382.891z"/>
				<linearGradient id="SVGID_20_" gradientUnits="userSpaceOnUse" x1="538.1328" y1="375.4004" x2="553.1074" y2="375.4004">
					<stop  offset="0" style="stop-color:#000000"/>
					<stop  offset="1" style="stop-color:#FFFFFF"/>
				</linearGradient>
				<path fill="url(#SVGID_20_)" d="M553.107,375.409c0,4.126-3.35,7.479-7.477,7.479c-1.73,0-3.305-0.58-4.549-1.554
					c-1.797-1.353-2.949-3.503-2.949-5.925c0-4.146,3.35-7.495,7.498-7.495c3.549,0,6.523,2.485,7.277,5.834
					C553.041,374.28,553.107,374.833,553.107,375.409z"/>
			</g>
			<g>
				<path fill="none" d="M427.457,766.426c0,0-2.375-48.715-22.721-54.753c-20.344-6.039-30.004,30.112-30.518,62.63
					c-0.322,20.347-1.217,30.559-1.217,30.559"/>
				<linearGradient id="SVGID_21_" gradientUnits="userSpaceOnUse" x1="243.5317" y1="748.9043" x2="350.4121" y2="748.9043">
					<stop  offset="0" style="stop-color:#FFFFFF"/>
					<stop  offset="1" style="stop-color:#000000"/>
				</linearGradient>
				<path fill="url(#SVGID_21_)" d="M350.412,806h-16.881c0,0-0.111-0.201-0.313-0.557c-3.215-5.787-31.299-55.546-44.211-55.014
					c-13.686,0.532-7.609,43.988-7.609,43.988s-1.375,23.361-25.422-26.241c-17.926-36.915-16.373-66.086,3.926-74.141
					c6.256-2.506,14.33-2.972,24.182-1.019c1.043,0.201,2.129,0.442,3.238,0.71c27.129,6.564,60.141,103.487,62.914,111.716
					C350.348,805.799,350.412,806,350.412,806z"/>
				<path fill="none" d="M277.49,799.864c0,0-20.977-44.029-5.916-58.983c15.059-14.954,40.684,12.315,56.537,40.713
					c9.918,17.765,14.141,22.875,14.141,22.875"/>
				<linearGradient id="SVGID_22_" gradientUnits="userSpaceOnUse" x1="358.0693" y1="735.0713" x2="431.6948" y2="735.0713">
					<stop  offset="0" style="stop-color:#000000"/>
					<stop  offset="1" style="stop-color:#FFFFFF"/>
				</linearGradient>
				<path fill="url(#SVGID_22_)" d="M427.457,766.426c-2.816,2.237-6.012-2.951-6.012-2.951s-15.219-41.151-27.551-35.14
					c-12.336,5.988-11.402,77.108-11.402,77.108h-16.861c0,0-18.813-108.41,2.908-127.842c3.037-2.73,6.01-4.994,8.893-6.813
					c29.639-18.77,51.867,7.364,53.975,57.546C432.537,755.333,430.164,764.295,427.457,766.426z"/>
				<linearGradient id="SVGID_23_" gradientUnits="userSpaceOnUse" x1="280.937" y1="692.4277" x2="377.4316" y2="692.4277">
					<stop  offset="0" style="stop-color:#FFFFFF"/>
					<stop  offset="1" style="stop-color:#000000"/>
				</linearGradient>
				<path fill="url(#SVGID_23_)" d="M377.432,670.789c-2.883,1.818-5.855,4.082-8.893,6.813
					c-21.721,19.432-2.908,127.842-2.908,127.842h-15.395c-2.773-8.229-35.785-105.151-62.914-111.716
					c-1.109-0.268-2.195-0.509-3.238-0.71c-1.531-18.524-5.988-80.375-0.445-113.605c0,0,30.414,17.55,58.588,45.369
					c0.021,0.02,0.021,0.043,0.021,0.043c4.75,4.679,9.451,9.673,13.91,14.931C364.301,649.313,371.709,659.72,377.432,670.789z"/>
				<path fill="none" d="M284.549,698.406c0,0-0.178-1.949-0.465-5.389"/>
				<linearGradient id="SVGID_24_" gradientUnits="userSpaceOnUse" x1="321.6172" y1="815.3945" x2="395.4023" y2="815.3945">
					<stop  offset="0" style="stop-color:#000000"/>
					<stop  offset="1" style="stop-color:#FFFFFF"/>
				</linearGradient>
				<path fill="url(#SVGID_24_)" d="M395.402,815.407c0,5.456-4.881,9.938-10.826,9.938h-52.133c-5.943,0-10.826-4.481-10.826-9.938
					c0-5.482,4.883-9.964,10.826-9.964h52.133C390.521,805.443,395.402,809.925,395.402,815.407z"/>
			</g>
			<path fill="none" d="M574.646,364.229c0,0,0,0.023-0.043,0.067"/>
			<linearGradient id="SVGID_25_" gradientUnits="userSpaceOnUse" x1="50" y1="594.5156" x2="103.4629" y2="594.5156">
				<stop  offset="0" style="stop-color:#000000"/>
				<stop  offset="1" style="stop-color:#FFFFFF"/>
			</linearGradient>
			<circle fill="url(#SVGID_25_)" cx="76.731" cy="594.514" r="26.731"/>
			<linearGradient id="SVGID_26_" gradientUnits="userSpaceOnUse" x1="84.248" y1="532.6875" x2="130.7617" y2="532.6875">
				<stop  offset="0" style="stop-color:#000000"/>
				<stop  offset="1" style="stop-color:#FFFFFF"/>
			</linearGradient>
			<path fill="url(#SVGID_26_)" d="M130.762,532.691c0,12.844-10.412,23.253-23.256,23.253c-12.848,0-23.258-10.409-23.258-23.253
				c0-12.848,10.41-23.26,23.258-23.26C120.35,509.431,130.762,519.843,130.762,532.691z"/>
			<linearGradient id="SVGID_27_" gradientUnits="userSpaceOnUse" x1="139.8555" y1="480.7969" x2="180.5898" y2="480.7969">
				<stop  offset="0" style="stop-color:#000000"/>
				<stop  offset="1" style="stop-color:#FFFFFF"/>
			</linearGradient>
			<circle fill="url(#SVGID_27_)" cx="160.223" cy="480.798" r="20.367"/>
			<linearGradient id="SVGID_28_" gradientUnits="userSpaceOnUse" x1="268.2441" y1="424.0156" x2="299.0352" y2="424.0156">
				<stop  offset="0" style="stop-color:#000000"/>
				<stop  offset="1" style="stop-color:#FFFFFF"/>
			</linearGradient>
			<path fill="url(#SVGID_28_)" d="M299.035,424.016c0,6.675-4.215,12.335-10.139,14.462c-0.865,0.334-1.773,0.579-2.729,0.71
				c-0.82,0.157-1.662,0.224-2.529,0.224c-8.494,0-15.395-6.879-15.395-15.396c0-8.497,6.9-15.396,15.395-15.396
				C292.158,408.62,299.035,415.519,299.035,424.016z"/>
			<linearGradient id="SVGID_29_" gradientUnits="userSpaceOnUse" x1="202.0566" y1="442.5103" x2="237.8906" y2="442.5103">
				<stop  offset="0" style="stop-color:#000000"/>
				<stop  offset="1" style="stop-color:#FFFFFF"/>
			</linearGradient>
			<circle fill="url(#SVGID_29_)" cx="219.974" cy="442.51" r="17.917"/>
			<linearGradient id="SVGID_30_" gradientUnits="userSpaceOnUse" x1="327.2988" y1="413.8291" x2="349.373" y2="413.8291">
				<stop  offset="0" style="stop-color:#000000"/>
				<stop  offset="1" style="stop-color:#FFFFFF"/>
			</linearGradient>
			<circle fill="url(#SVGID_30_)" cx="338.336" cy="413.831" r="11.037"/>
			<linearGradient id="SVGID_31_" gradientUnits="userSpaceOnUse" x1="372.1934" y1="409.9258" x2="387.1641" y2="409.9258">
				<stop  offset="0" style="stop-color:#000000"/>
				<stop  offset="1" style="stop-color:#FFFFFF"/>
			</linearGradient>
			<circle fill="url(#SVGID_31_)" cx="379.679" cy="409.926" r="7.485"/>
			<path fill="none" d="M575.18,353.716c0,0-0.111,0.332-0.555,1.042"/>
			<path fill="none" d="M552.908,373.748c-3.395,2.328-7.299,4.856-11.826,7.586"/>
			<path fill="none" d="M391.629,461.818c-8.096,4.612-16.016,9.227-23.734,13.795"/>
			<path fill="none" d="M352.344,484.998c-14.02,8.584-27.109,17.038-38.912,25.223"/>
			<path fill="none" d="M261.523,698.406c0,0-0.621-1.551-1.621-4.37"/>
			<path fill="none" d="M266.182,549.156c7.143-7.854,16.793-16.307,28.395-25.223"/>
			<path fill="none" d="M399.461,420.067c1.688,0.221,1.553,0.62,1.553,0.62"/>
			<path fill="none" d="M288.896,438.478c-0.908,0.224-1.818,0.469-2.729,0.71"/>
			<path fill="none" d="M100.799,664.687c0-0.197-0.064-0.864-0.131-1.949"/>
			<linearGradient id="SVGID_32_" gradientUnits="userSpaceOnUse" x1="244.2227" y1="524.397" x2="574.6392" y2="524.397">
				<stop  offset="0" style="stop-color:#000000"/>
				<stop  offset="0.095" style="stop-color:#060606"/>
				<stop  offset="0.2196" style="stop-color:#161616"/>
				<stop  offset="0.3605" style="stop-color:#313131"/>
				<stop  offset="0.5134" style="stop-color:#575757"/>
				<stop  offset="0.6761" style="stop-color:#888888"/>
				<stop  offset="0.8443" style="stop-color:#C2C2C2"/>
				<stop  offset="1" style="stop-color:#FFFFFF"/>
			</linearGradient>
			<path fill="url(#SVGID_32_)" d="M574.604,364.296v0.023c-0.754,1.751-14.02,30.434-90.178,78.197
				c-54.504,34.185-103.531,71.1-128.557,104.931c-0.088,0.11-0.154,0.221-0.221,0.308c-0.088,0.114-0.178,0.224-0.244,0.312
				c-0.066,0.11-0.156,0.221-0.221,0.312c-0.088,0.11-0.158,0.221-0.244,0.332c-10.604,14.643-16.615,28.706-16.594,41.684
				c0.043,26.312,3.594,33.807,3.881,34.387c-28.174-27.819-58.588-45.369-58.588-45.369c-5.543,33.23-1.086,95.081,0.445,113.605
				c-9.852-1.953-17.926-1.487-24.182,1.019c-5.346-15.085-21.719-66.261-13.332-106.083c0.045-0.198,0.09-0.375,0.133-0.576
				c0.023-0.178,0.066-0.355,0.111-0.533c0.045-0.177,0.066-0.375,0.133-0.576c0.021-0.154,0.066-0.332,0.111-0.509
				c0.51-2.197,1.109-4.394,1.773-6.544c2.643-8.497,6.523-16.528,11.98-23.672c1.396-1.838,2.973-3.728,4.682-5.633
				c0.221-0.245,0.443-0.509,0.688-0.753c-0.023,0.485-0.045,0.951-0.045,1.44c0,9.053,4.48,17.038,11.359,21.874
				c0.109,0.09,0.242,0.154,0.354,0.244l0.398,0.265c0.135,0.09,0.268,0.178,0.4,0.245c0.133,0.09,0.266,0.177,0.398,0.245
				c4.039,2.461,8.764,3.861,13.822,3.861c11.689,0,21.65-7.522,25.266-17.992c0.045-0.111,0.09-0.245,0.111-0.355
				c0.045-0.111,0.09-0.245,0.133-0.378c0.045-0.111,0.066-0.221,0.113-0.355c0.021-0.111,0.064-0.221,0.088-0.355
				c0.664-2.304,1.02-4.769,1.02-7.298c0-14.174-11.07-25.799-25.023-26.663c5.813-4.461,12.135-9.053,18.855-13.711
				c4.283,5.503,10.938,9.053,18.436,9.053c12.846,0,23.25-10.429,23.25-23.273c0-3.969-0.998-7.72-2.773-11.002
				c5.057-3.128,10.248-6.256,15.551-9.384c1.375,0.312,2.818,0.466,4.303,0.466c9.119,0,16.838-5.989,19.432-14.261
				c37.559-21.408,78.643-43.017,117.732-62.958c12.955-6.611,23.359-12.445,31.721-17.526c1.244,0.975,2.818,1.554,4.549,1.554
				c4.127,0,7.477-3.353,7.477-7.479c0-0.576-0.066-1.128-0.199-1.661c15.527-10.54,20.342-16.682,21.717-18.99
				C574.646,357.085,574.646,360.348,574.604,364.296z"/>
			<linearGradient id="SVGID_33_" gradientUnits="userSpaceOnUse" x1="100.1914" y1="563.6826" x2="399.4609" y2="563.6826">
				<stop  offset="0" style="stop-color:#000000"/>
				<stop  offset="1" style="stop-color:#FFFFFF"/>
			</linearGradient>
			<path fill="url(#SVGID_33_)" d="M399.461,420.067c-1.152,2.351-1.797,4.99-1.797,7.787
				C282.24,448.462,219.971,486.087,178.021,547.87c-14.863,21.85-21.828,49.203-24.734,75.026
				c-1.109,9.913-1.596,19.609-1.73,28.683c-0.021,0.378-0.021,0.753-0.021,1.151v1.156c-0.021,0.398-0.021,0.82-0.021,1.219
				c-0.068,21.364,2.129,42.371,3.303,52.354c-15.395-14.087-36.291-32.323-54.148-44.722c-0.889-12.225-4.506-78,37.225-127.937
				c38.799-46.406,71.875-75.337,148.275-95.613c0.955-0.131,1.863-0.375,2.729-0.71c14.775-3.835,31.146-7.365,49.449-10.624
				C382.713,419.91,395.691,419.535,399.461,420.067z"/>
			<path fill="none" d="M155.506,713.428c0-0.269-0.289-2.418-0.689-5.969"/>
			<linearGradient id="SVGID_34_" gradientUnits="userSpaceOnUse" x1="168.7837" y1="779.8447" x2="241.0625" y2="779.8447">
				<stop  offset="0" style="stop-color:#000000"/>
				<stop  offset="1" style="stop-color:#FFFFFF"/>
			</linearGradient>
			<path fill="url(#SVGID_34_)" d="M237.719,791.759c-2.508,0.754-6.033-2.398-9.162-8.477
				c-7.365-14.375-28.729-30.28-29.881-17.479c-1.176,12.824,22.715,72.809,22.715,72.809l-7.52,0.354l-13.266,0.62
				c0,0-0.133-0.222-0.355-0.62c-4.502-7.987-49.537-89.424-23.314-110.631c27.553-22.319,54.729,4.478,61.715,35.913
				C242.689,782.418,241.156,790.758,237.719,791.759z"/>
			<linearGradient id="SVGID_35_" gradientUnits="userSpaceOnUse" x1="69.9629" y1="742.166" x2="200.25" y2="742.166">
				<stop  offset="0" style="stop-color:#FFFFFF"/>
				<stop  offset="0.0308" style="stop-color:#F5F5F5"/>
				<stop  offset="0.3093" style="stop-color:#9F9F9F"/>
				<stop  offset="0.5551" style="stop-color:#5B5B5B"/>
				<stop  offset="0.759" style="stop-color:#2A2A2A"/>
				<stop  offset="0.9132" style="stop-color:#0B0B0B"/>
				<stop  offset="1" style="stop-color:#000000"/>
			</linearGradient>
			<path fill="url(#SVGID_35_)" d="M200.25,838.966c-4.391-7.211-46.186-74.982-77.576-90.579
				C76.73,725.562,69.963,645.365,69.963,645.365s0.467,0.134,1.465,0.532c2.795,1.112,9.762,4.261,22.273,12.181
				c2.262,1.421,4.592,2.972,6.967,4.659c17.857,12.398,38.754,30.635,54.148,44.722c13.023,11.913,22.119,20.876,22.119,20.876
				C150.713,749.542,195.748,830.979,200.25,838.966z"/>
			<path fill="none" d="M178.855,794.408"/>
			<path fill="none" d="M71.434,645.904"/>
			<linearGradient id="SVGID_36_" gradientUnits="userSpaceOnUse" x1="193.6172" y1="849.5244" x2="234.0137" y2="849.5244">
				<stop  offset="0" style="stop-color:#000000"/>
				<stop  offset="1" style="stop-color:#FFFFFF"/>
			</linearGradient>
			<path fill="url(#SVGID_36_)" d="M234.014,849.526c0,5.455-5.279,9.937-11.756,9.937h-16.883c-6.455,0-11.758-4.481-11.758-9.937
				c0-5.483,5.303-9.94,11.758-9.94h16.883C228.734,839.586,234.014,844.043,234.014,849.526z"/>
			<path fill="none" d="M358.09,825.277c0,0,0,0.023-0.023,0.067"/>
			<linearGradient id="SVGID_37_" gradientUnits="userSpaceOnUse" x1="600.2925" y1="888.6357" x2="600.2925" y2="820.8903">
				<stop  offset="0" style="stop-color:#000000"/>
				<stop  offset="0.3526" style="stop-color:#020202"/>
				<stop  offset="0.5325" style="stop-color:#0A0A0A"/>
				<stop  offset="0.6734" style="stop-color:#171717"/>
				<stop  offset="0.794" style="stop-color:#2A2A2A"/>
				<stop  offset="0.9006" style="stop-color:#424242"/>
				<stop  offset="0.9976" style="stop-color:#606060"/>
				<stop  offset="1" style="stop-color:#616161"/>
			</linearGradient>
			<path fill="url(#SVGID_37_)" d="M985.449,906.449c-22.006-2.706-123.785-15.085-160.523-18.414
				c-91.797-8.363-197.414-5.211-224.834-4.17h-0.199c-27.42-1.041-133.016-4.193-224.811,4.17
				c-35.961,3.262-134.189,15.195-159.014,18.213l-0.934-21.184c5.303,5.433,25.689,24.111,45.988,12.154
				c23.582-13.886,25.955-32.698,25.955-32.698s16.617,18.946,40.02,16.149c28.063-3.349,37.049-29.948,37.049-29.948
				s26.598,30.592,63.311,31.325c32.102,0.643,53.531-31.456,53.531-31.456s22.715,30.723,59.451,31.456
				c32.08,0.643,58.633-36.938,58.633-36.938s28.418,37.581,60.496,36.938c36.736-0.733,59.43-31.456,59.43-31.456
				s21.451,32.099,53.553,31.456c36.715-0.733,63.291-31.325,63.291-31.325s9.006,26.6,37.068,29.948
				c23.402,2.797,39.996-16.149,39.996-16.149s2.396,18.813,25.979,32.698c20.254,11.937,40.617-6.655,45.965-12.135
				L985.449,906.449z"/>
			<line fill="none" x1="216.113" y1="907.447" x2="216.068" y2="906.248"/>
			<linearGradient id="SVGID_38_" gradientUnits="userSpaceOnUse" x1="210.3008" y1="910.3145" x2="989.6875" y2="910.3145">
				<stop  offset="0" style="stop-color:#3A3738"/>
				<stop  offset="0.565" style="stop-color:#EFEFEF"/>
				<stop  offset="1" style="stop-color:#3A3738"/>
			</linearGradient>
			<path fill="url(#SVGID_38_)" d="M989.688,906.958l-3.506,31.258c0,0-2.818-0.354-7.764-0.978
				c-27.354-3.46-119.615-15.041-154.6-18.213c-90.689-8.253-194.887-5.255-223.814-4.189
				c-28.928-1.065-133.127-4.063-223.814,4.189c-29.77,2.706-101.045,11.491-138.471,16.173
				c-14.486,1.819-23.893,3.018-23.893,3.018l-3.525-31.258c0,0,2.061-0.244,5.768-0.71c24.824-3.018,123.053-14.951,159.014-18.213
				c91.795-8.363,197.391-5.211,224.811-4.17h0.199c27.42-1.041,133.037-4.193,224.834,4.17
				c36.738,3.329,138.518,15.708,160.523,18.414C988.178,906.78,989.688,906.958,989.688,906.958z"/>
			<path fill="none" d="M606.68,884.133c0,0-2.307-0.113-6.588-0.268"/>
			<path fill="none" d="M607.813,915.144c0,0-2.752-0.131-7.809-0.308"/>
			<line fill="none" x1="261.432" y1="1014.217" x2="261.189" y2="1013.439"/>
			<linearGradient id="SVGID_39_" gradientUnits="userSpaceOnUse" x1="237.7188" y1="964.1191" x2="978.418" y2="964.1191">
				<stop  offset="0" style="stop-color:#000000"/>
				<stop  offset="0.0613" style="stop-color:#0E0E0E"/>
				<stop  offset="0.1778" style="stop-color:#343434"/>
				<stop  offset="0.3358" style="stop-color:#707070"/>
				<stop  offset="0.47" style="stop-color:#A8A8A8"/>
				<stop  offset="0.4758" style="stop-color:#A4A4A4"/>
				<stop  offset="0.5372" style="stop-color:#797979"/>
				<stop  offset="0.6017" style="stop-color:#535353"/>
				<stop  offset="0.6686" style="stop-color:#353535"/>
				<stop  offset="0.7385" style="stop-color:#1E1E1E"/>
				<stop  offset="0.8131" style="stop-color:#0D0D0D"/>
				<stop  offset="0.8952" style="stop-color:#030303"/>
				<stop  offset="1" style="stop-color:#000000"/>
			</linearGradient>
			<path fill="url(#SVGID_39_)" d="M958.518,951.061c6.232,1.44,9.561,2.375,14.488,4.923l5.412-18.745
				c-27.354-3.46-119.615-15.041-154.6-18.213c-90.689-8.253-194.887-5.255-223.814-4.189
				c-28.928-1.065-133.127-4.063-223.814,4.189c-29.77,2.706-101.045,11.491-138.471,16.173l5.945,20.122
				c4.969-2.575,8.275-3.506,14.529-4.946c22.164-5.081,41.908,0.398,45.012,12.023c5.391,20.229-39.287,35.093-47.451,33.895
				l5.436,17.147c11.801-19.653,162.652-35.184,347-35.184c188.652,0,342.232,16.264,347.623,36.561l5.279-17.858
				c-7.832,1.377-52.998-13.531-47.586-33.874C916.611,951.459,936.355,945.979,958.518,951.061z M342.139,968.697l-19.211-10.781
				l15.639-17.061l19.055,12.6L342.139,968.697z M414.213,969.826c-22.715,1.266-41.66-7.476-42.326-19.499
				s17.193-22.805,39.887-24.067c22.717-1.267,41.662,7.452,42.328,19.476C454.766,957.782,436.908,968.54,414.213,969.826z
				 M500.443,954.919l-17.148-13.843l18.279-14.197l16.682,15.617L500.443,954.919z M602.488,966.788
				c-22.693,1.263-41.662-7.452-42.326-19.476c-0.666-12.026,17.193-22.808,39.887-24.07c22.717-1.267,41.66,7.452,42.326,19.476
				S625.184,965.525,602.488,966.788z M699.566,954.919l-17.814-12.423l16.66-15.617l18.301,14.197L699.566,954.919z
				 M785.795,969.826c-22.719-1.286-40.576-12.044-39.889-24.091c0.666-12.023,19.611-20.742,42.307-19.476
				c22.715,1.263,40.574,12.044,39.908,24.067C827.434,962.351,808.488,971.092,785.795,969.826z M872.488,973.865l-15.482-15.242
				l19.033-12.6l15.66,17.061L872.488,973.865z"/>
			<g>
				<linearGradient id="SVGID_40_" gradientUnits="userSpaceOnUse" x1="383.6147" y1="948.041" x2="442.3716" y2="948.041">
					<stop  offset="0" style="stop-color:#3A3738"/>
					<stop  offset="0.565" style="stop-color:#EFEFEF"/>
					<stop  offset="1" style="stop-color:#3A3738"/>
				</linearGradient>
				<path fill="url(#SVGID_40_)" d="M442.365,946.401c0.334,5.791-12.557,11.247-28.795,12.158
					c-16.217,0.888-29.637-3.085-29.949-8.876c-0.33-5.811,12.559-11.246,28.795-12.157
					C428.633,936.619,442.053,940.588,442.365,946.401z"/>
				<linearGradient id="SVGID_41_" gradientUnits="userSpaceOnUse" x1="371.8687" y1="948.043" x2="454.1196" y2="948.043">
					<stop  offset="0" style="stop-color:#000000"/>
					<stop  offset="1" style="stop-color:#FFFFFF"/>
				</linearGradient>
				<path fill="url(#SVGID_41_)" d="M411.773,926.26c-22.693,1.263-40.553,12.044-39.887,24.067s19.611,20.765,42.326,19.499
					c22.695-1.286,40.553-12.044,39.889-24.091C453.436,933.712,434.49,924.993,411.773,926.26z M413.57,958.56
					c-16.217,0.888-29.637-3.085-29.949-8.876c-0.33-5.811,12.559-11.246,28.795-12.157c16.217-0.907,29.637,3.062,29.949,8.875
					C442.699,952.192,429.809,957.648,413.57,958.56z"/>
			</g>
			<g>
				<path fill="none" d="M252.98,986.887c-0.064,0-0.109,0-0.154-0.023l-1.951-7.097L252.98,986.887z"/>
				<linearGradient id="SVGID_42_" gradientUnits="userSpaceOnUse" x1="246.8145" y1="973.1016" x2="291.7578" y2="973.1016">
					<stop  offset="0" style="stop-color:#3A3738"/>
					<stop  offset="0.565" style="stop-color:#EFEFEF"/>
					<stop  offset="1" style="stop-color:#3A3738"/>
				</linearGradient>
				<path fill="url(#SVGID_42_)" d="M291.758,965.037c0,9.227-32.609,22.981-38.777,21.85l-2.105-7.12l-4.061-14.864
					C261.922,958.67,291.758,956.118,291.758,965.037z"/>
				<path fill="none" d="M252.98,986.887l-2.105-7.12l-7.1-24.027l9.051,31.124l2.729,9.408c0.066,0.021,0.135,0.021,0.199,0.021
					L252.98,986.887z"/>
				<linearGradient id="SVGID_43_" gradientUnits="userSpaceOnUse" x1="243.6641" y1="972.416" x2="303.6548" y2="972.416">
					<stop  offset="0" style="stop-color:#000000"/>
					<stop  offset="1" style="stop-color:#FFFFFF"/>
				</linearGradient>
				<path fill="url(#SVGID_43_)" d="M255.754,996.292l-2.773-9.405c6.168,1.132,38.777-12.623,38.777-21.85
					c0-8.919-29.836-6.367-44.943-0.135l4.061,14.864l-7.1-24.027l-0.111-0.419c4.969-2.575,8.275-3.506,14.529-4.946
					c22.164-5.081,41.908,0.398,45.012,12.023C308.596,982.627,263.918,997.49,255.754,996.292z"/>
			</g>
			<g>
				<linearGradient id="SVGID_44_" gradientUnits="userSpaceOnUse" x1="571.8901" y1="945.0156" x2="630.668" y2="945.0156">
					<stop  offset="0" style="stop-color:#3A3738"/>
					<stop  offset="0.565" style="stop-color:#EFEFEF"/>
					<stop  offset="1" style="stop-color:#3A3738"/>
				</linearGradient>
				<path fill="url(#SVGID_44_)" d="M630.662,943.36c0.311,5.814-12.58,11.25-28.816,12.158
					c-16.217,0.911-29.639-3.062-29.949-8.872c-0.332-5.791,12.555-11.247,28.795-12.135
					C616.908,933.602,630.33,937.573,630.662,943.36z"/>
				<linearGradient id="SVGID_45_" gradientUnits="userSpaceOnUse" x1="560.144" y1="945.0156" x2="642.3926" y2="945.0156">
					<stop  offset="0" style="stop-color:#000000"/>
					<stop  offset="1" style="stop-color:#FFFFFF"/>
				</linearGradient>
				<path fill="url(#SVGID_45_)" d="M600.049,923.242c-22.693,1.263-40.553,12.044-39.887,24.07
					c0.664,12.023,19.633,20.738,42.326,19.476c22.695-1.263,40.553-12.047,39.887-24.07S622.766,921.976,600.049,923.242z
					 M601.846,955.519c-16.217,0.911-29.639-3.062-29.949-8.872c-0.332-5.791,12.555-11.247,28.795-12.135
					c16.217-0.91,29.639,3.062,29.971,8.849C630.973,949.175,618.082,954.61,601.846,955.519z"/>
			</g>
			<linearGradient id="SVGID_46_" gradientUnits="userSpaceOnUse" x1="322.9277" y1="954.7764" x2="357.6211" y2="954.7764">
				<stop  offset="0" style="stop-color:#3A3738"/>
				<stop  offset="0.565" style="stop-color:#EFEFEF"/>
				<stop  offset="1" style="stop-color:#3A3738"/>
			</linearGradient>
			<polygon fill="url(#SVGID_46_)" points="357.621,953.455 342.139,968.697 322.928,957.916 338.566,940.855 			"/>
			<linearGradient id="SVGID_47_" gradientUnits="userSpaceOnUse" x1="483.2949" y1="940.8984" x2="518.2559" y2="940.8984">
				<stop  offset="0" style="stop-color:#3A3738"/>
				<stop  offset="0.565" style="stop-color:#EFEFEF"/>
				<stop  offset="1" style="stop-color:#3A3738"/>
			</linearGradient>
			<polygon fill="url(#SVGID_47_)" points="518.256,942.496 500.443,954.919 483.295,941.076 501.574,926.879 			"/>
			<g>
				<g>
					<path fill="none" d="M598.623,333.755"/>
				</g>
				<g>
					<path fill="none" d="M601.281,333.755"/>
					<path fill="none" d="M615.393,333.755"/>
				</g>
			</g>
			<g>
				<linearGradient id="SVGID_48_" gradientUnits="userSpaceOnUse" x1="880.4082" y1="550.5977" x2="933.8711" y2="550.5977">
					<stop  offset="0" style="stop-color:#000000"/>
					<stop  offset="1" style="stop-color:#FFFFFF"/>
				</linearGradient>
				<path fill="url(#SVGID_48_)" d="M933.871,550.596c0,14.773-11.979,26.733-26.732,26.733c-14.773,0-26.73-11.96-26.73-26.733
					c0-14.174,11.047-25.799,25.023-26.663c0.557-0.047,1.131-0.067,1.707-0.067c14.266,0,25.934,11.203,26.689,25.29
					C933.85,549.641,933.871,550.107,933.871,550.596z"/>
				<linearGradient id="SVGID_49_" gradientUnits="userSpaceOnUse" x1="844.8926" y1="496.0137" x2="891.3906" y2="496.0137">
					<stop  offset="0" style="stop-color:#000000"/>
					<stop  offset="1" style="stop-color:#FFFFFF"/>
				</linearGradient>
				<path fill="url(#SVGID_49_)" d="M891.391,496c0,5.325-1.797,10.272-4.838,14.201c-4.238,5.523-10.914,9.073-18.412,9.073
					c-12.844,0-23.248-10.429-23.248-23.273c0-3.969,0.996-7.72,2.771-11.002c3.928-7.298,11.625-12.245,20.477-12.245
					C880.986,472.753,891.391,483.16,891.391,496z"/>
				<linearGradient id="SVGID_50_" gradientUnits="userSpaceOnUse" x1="807.4453" y1="455.7148" x2="848.1758" y2="455.7148">
					<stop  offset="0" style="stop-color:#000000"/>
					<stop  offset="1" style="stop-color:#FFFFFF"/>
				</linearGradient>
				<path fill="url(#SVGID_50_)" d="M848.176,455.716c0,9.759-6.879,17.925-16.063,19.897c-1.375,0.312-2.816,0.466-4.303,0.466
					c-9.117,0-16.836-5.989-19.432-14.261c-0.6-1.933-0.934-3.972-0.934-6.102c0-11.247,9.119-20.367,20.365-20.367
					S848.176,444.47,848.176,455.716z"/>
				<linearGradient id="SVGID_51_" gradientUnits="userSpaceOnUse" x1="731.5547" y1="408.6245" x2="762.3516" y2="408.6245">
					<stop  offset="0" style="stop-color:#000000"/>
					<stop  offset="1" style="stop-color:#FFFFFF"/>
				</linearGradient>
				<path fill="url(#SVGID_51_)" d="M731.555,408.623c0,8.507,6.895,15.399,15.398,15.399s15.398-6.893,15.398-15.399
					c0-8.5-6.895-15.396-15.398-15.396S731.555,400.123,731.555,408.623z"/>
				<linearGradient id="SVGID_52_" gradientUnits="userSpaceOnUse" x1="766.4922" y1="427.8428" x2="802.3203" y2="427.8428">
					<stop  offset="0" style="stop-color:#000000"/>
					<stop  offset="1" style="stop-color:#FFFFFF"/>
				</linearGradient>
				<path fill="url(#SVGID_52_)" d="M802.32,427.854c0,9.894-8.01,17.902-17.902,17.902c-9.895,0-17.926-8.008-17.926-17.902
					s8.031-17.925,17.926-17.925c6.611,0,12.357,3.57,15.463,8.896C801.434,421.487,802.32,424.568,802.32,427.854z"/>
				<linearGradient id="SVGID_53_" gradientUnits="userSpaceOnUse" x1="697.8477" y1="393.9287" x2="719.9219" y2="393.9287">
					<stop  offset="0" style="stop-color:#000000"/>
					<stop  offset="1" style="stop-color:#FFFFFF"/>
				</linearGradient>
				<path fill="url(#SVGID_53_)" d="M697.848,393.927c0,6.096,4.941,11.039,11.037,11.039s11.037-4.943,11.037-11.039
					c0-6.092-4.941-11.036-11.037-11.036S697.848,387.834,697.848,393.927z"/>
				<linearGradient id="SVGID_54_" gradientUnits="userSpaceOnUse" x1="673.0156" y1="382.8896" x2="687.9844" y2="382.8896">
					<stop  offset="0" style="stop-color:#000000"/>
					<stop  offset="1" style="stop-color:#FFFFFF"/>
				</linearGradient>
				<path fill="url(#SVGID_54_)" d="M673.016,382.891c0,4.133,3.35,7.482,7.484,7.482c4.133,0,7.484-3.349,7.484-7.482
					c0-4.136-3.352-7.485-7.484-7.485C676.365,375.406,673.016,378.755,673.016,382.891z"/>
				<linearGradient id="SVGID_55_" gradientUnits="userSpaceOnUse" x1="646.9004" y1="375.4004" x2="661.8516" y2="375.4004">
					<stop  offset="0" style="stop-color:#000000"/>
					<stop  offset="1" style="stop-color:#FFFFFF"/>
				</linearGradient>
				<path fill="url(#SVGID_55_)" d="M661.852,375.409c0,2.422-1.154,4.572-2.951,5.925c-1.242,0.975-2.816,1.554-4.523,1.554
					c-4.127,0-7.477-3.353-7.477-7.479c0-0.552,0.066-1.108,0.176-1.641c0.756-3.349,3.729-5.854,7.301-5.854
					C658.502,367.914,661.852,371.263,661.852,375.409z"/>
			</g>
			<g>
				<path fill="none" d="M772.543,766.426c0,0,2.375-48.715,22.719-54.753c20.348-6.039,30.004,30.112,30.52,62.63
					c0.322,20.347,1.217,30.559,1.217,30.559"/>
				<path fill="none" d="M922.51,799.864c0,0,20.975-44.029,5.918-58.983c-15.061-14.954-40.688,12.315-56.539,40.713
					c-9.918,17.765-14.143,22.875-14.143,22.875"/>
				<path fill="none" d="M918.121,692.619c-0.18,3.57-0.311,5.609-0.311,5.609"/>
				<linearGradient id="SVGID_56_" gradientUnits="userSpaceOnUse" x1="804.584" y1="815.3945" x2="878.3672" y2="815.3945">
					<stop  offset="0" style="stop-color:#000000"/>
					<stop  offset="1" style="stop-color:#FFFFFF"/>
				</linearGradient>
				<path fill="url(#SVGID_56_)" d="M878.367,815.407c0,5.456-4.881,9.938-10.826,9.938H815.41c-5.947,0-10.826-4.481-10.826-9.938
					c0-5.482,4.879-9.964,10.826-9.964h52.131C873.486,805.443,878.367,809.925,878.367,815.407z"/>
			</g>
			<linearGradient id="SVGID_57_" gradientUnits="userSpaceOnUse" x1="628.2207" y1="504.5107" x2="861.6641" y2="504.5107">
				<stop  offset="0" style="stop-color:#000000"/>
				<stop  offset="1" style="stop-color:#FFFFFF"/>
			</linearGradient>
			<path fill="url(#SVGID_57_)" d="M861.664,590.395c-0.066,26.312-3.596,33.807-3.883,34.387c-0.023,0.02-0.023,0.043-0.023,0.043
				c-4.746,4.679-9.449,9.673-13.908,14.931c0,0,7.721-33.767-5.393-66.532c-3.037-7.586-7.941-17.546-17.035-29.483h-0.023
				c-0.043-0.087-0.111-0.174-0.199-0.265c-0.043-0.087-0.111-0.178-0.199-0.265c0,0,0-0.023-0.021-0.023
				c-0.047-0.087-0.111-0.178-0.199-0.265c-0.047-0.09-0.113-0.181-0.223-0.268c-12.979-16.773-34.297-37.313-70.346-60.607
				c-80.307-51.91-112.563-87.204-121.611-98.272c-0.178-5.258-0.313-10.162-0.379-14.509c6.768,10.292,27.885,35.957,87.361,73.25
				c55.039,34.517,104.441,71.81,129.242,105.882c0.09,0.114,0.18,0.224,0.244,0.335c0.09,0.11,0.178,0.221,0.244,0.332
				c0.068,0.11,0.156,0.221,0.223,0.312c0.088,0.11,0.154,0.221,0.223,0.332h0.021C855.916,563.996,861.686,577.704,861.664,590.395
				z"/>
			<path fill="none" d="M628.221,369.243c-2.174-3.306-2.859-5.014-2.859-5.014"/>
			<linearGradient id="SVGID_58_" gradientUnits="userSpaceOnUse" x1="1096.5391" y1="594.5156" x2="1150" y2="594.5156">
				<stop  offset="0" style="stop-color:#000000"/>
				<stop  offset="1" style="stop-color:#FFFFFF"/>
			</linearGradient>
			<circle fill="url(#SVGID_58_)" cx="1123.27" cy="594.514" r="26.73"/>
			<linearGradient id="SVGID_59_" gradientUnits="userSpaceOnUse" x1="1069.2383" y1="532.6875" x2="1115.7539" y2="532.6875">
				<stop  offset="0" style="stop-color:#000000"/>
				<stop  offset="1" style="stop-color:#FFFFFF"/>
			</linearGradient>
			<path fill="url(#SVGID_59_)" d="M1069.238,532.691c0,12.844,10.41,23.253,23.256,23.253s23.26-10.409,23.26-23.253
				c0-12.848-10.414-23.26-23.26-23.26S1069.238,519.843,1069.238,532.691z"/>
			<linearGradient id="SVGID_60_" gradientUnits="userSpaceOnUse" x1="1019.4102" y1="480.7969" x2="1060.1445" y2="480.7969">
				<stop  offset="0" style="stop-color:#000000"/>
				<stop  offset="1" style="stop-color:#FFFFFF"/>
			</linearGradient>
			<circle fill="url(#SVGID_60_)" cx="1039.777" cy="480.798" r="20.367"/>
			<linearGradient id="SVGID_61_" gradientUnits="userSpaceOnUse" x1="900.9492" y1="424.0156" x2="931.7637" y2="424.0156">
				<stop  offset="0" style="stop-color:#000000"/>
				<stop  offset="1" style="stop-color:#FFFFFF"/>
			</linearGradient>
			<path fill="url(#SVGID_61_)" d="M931.764,424.016c0,8.517-6.898,15.396-15.418,15.396c-0.844,0-1.664-0.067-2.484-0.224
				c-0.91-0.131-1.773-0.352-2.617-0.663c-0.021,0-0.066-0.023-0.09-0.023c-0.021-0.023-0.021-0.023-0.045-0.023
				c-5.922-2.127-10.16-7.787-10.16-14.462c0-8.497,6.9-15.396,15.396-15.396C924.865,408.62,931.764,415.519,931.764,424.016z"/>
			<linearGradient id="SVGID_62_" gradientUnits="userSpaceOnUse" x1="962.1094" y1="442.5103" x2="997.9434" y2="442.5103">
				<stop  offset="0" style="stop-color:#000000"/>
				<stop  offset="1" style="stop-color:#FFFFFF"/>
			</linearGradient>
			<circle fill="url(#SVGID_62_)" cx="980.026" cy="442.51" r="17.917"/>
			<linearGradient id="SVGID_63_" gradientUnits="userSpaceOnUse" x1="850.627" y1="413.8291" x2="872.7012" y2="413.8291">
				<stop  offset="0" style="stop-color:#000000"/>
				<stop  offset="1" style="stop-color:#FFFFFF"/>
			</linearGradient>
			<circle fill="url(#SVGID_63_)" cx="861.664" cy="413.831" r="11.037"/>
			<linearGradient id="SVGID_64_" gradientUnits="userSpaceOnUse" x1="812.8379" y1="409.9258" x2="827.8066" y2="409.9258">
				<stop  offset="0" style="stop-color:#000000"/>
				<stop  offset="1" style="stop-color:#FFFFFF"/>
			</linearGradient>
			<circle fill="url(#SVGID_64_)" cx="820.322" cy="409.926" r="7.484"/>
			<path fill="none" d="M628.6,383.775c-1.998-2.442-2.861-3.708-2.861-3.708"/>
			<linearGradient id="SVGID_65_" gradientUnits="userSpaceOnUse" x1="902.7012" y1="600.6182" x2="626.4991" y2="367.5273">
				<stop  offset="0" style="stop-color:#000000"/>
				<stop  offset="0.0917" style="stop-color:#060606"/>
				<stop  offset="0.2174" style="stop-color:#181818"/>
				<stop  offset="0.3627" style="stop-color:#353535"/>
				<stop  offset="0.5228" style="stop-color:#5D5D5D"/>
				<stop  offset="0.695" style="stop-color:#919191"/>
				<stop  offset="0.8745" style="stop-color:#CFCFCF"/>
				<stop  offset="1" style="stop-color:#FFFFFF"/>
			</linearGradient>
			<path fill="url(#SVGID_65_)" d="M941.215,694.505c-5.967-2.687-13.666-3.44-23.094-1.886c1.02-18.77,3.748-80.106-1.775-113.207
				c0,0-30.414,17.55-58.564,45.369c0.287-0.58,3.816-8.075,3.883-34.387c0.021-12.69-5.748-26.398-15.885-40.686h-0.021
				c-0.068-0.111-0.135-0.221-0.223-0.332c-0.066-0.091-0.154-0.201-0.223-0.312c-0.066-0.111-0.154-0.221-0.244-0.332
				c-0.064-0.111-0.154-0.221-0.244-0.335c-24.801-34.072-74.203-71.365-129.242-105.882c-59.477-37.293-80.594-62.958-87.361-73.25
				v-0.023c-0.086-4.26-0.109-7.985-0.109-10.936c2.971,3.306,8.563,8.387,18.965,15.46c-0.109,0.533-0.176,1.089-0.176,1.641
				c0,4.126,3.35,7.479,7.477,7.479c1.707,0,3.281-0.58,4.523-1.554c8.365,5.081,18.791,10.915,31.746,17.526
				c39.088,19.941,80.174,41.55,117.732,62.958c2.596,8.272,10.314,14.261,19.432,14.261c1.486,0,2.928-0.154,4.303-0.466
				c5.303,3.128,10.494,6.256,15.551,9.384c-1.775,3.282-2.771,7.034-2.771,11.002c0,12.844,10.404,23.273,23.248,23.273
				c7.498,0,14.174-3.55,18.412-9.073c6.744,4.679,13.068,9.25,18.879,13.731c-13.977,0.864-25.023,12.489-25.023,26.663
				c0,14.773,11.957,26.733,26.73,26.733c14.754,0,26.732-11.96,26.732-26.733c0-0.489-0.021-0.955-0.043-1.44
				c0.242,0.245,0.465,0.509,0.686,0.753c1.709,1.906,3.262,3.795,4.682,5.633c3.439,4.481,6.234,9.385,8.496,14.576
				C966.725,613.933,946.736,678.441,941.215,694.505z"/>
			<path fill="none" d="M628.111,358.308c-2.84-3.108-3.305-4.591-3.305-4.591"/>
			<path fill="none" d="M658.9,381.333c-4.502-2.75-8.428-5.258-11.824-7.566"/>
			<path fill="none" d="M832.113,475.614c-7.719-4.568-15.639-9.184-23.734-13.795"/>
			<path fill="none" d="M886.553,510.201c-11.803-8.186-24.867-16.619-38.889-25.203"/>
			<path fill="none" d="M933.828,549.156c-7.145-7.854-16.793-16.307-28.396-25.223"/>
			<path fill="none" d="M941.215,694.505c-0.82,2.418-1.332,3.724-1.332,3.724"/>
			<linearGradient id="SVGID_66_" gradientUnits="userSpaceOnUse" x1="768.2988" y1="735.0713" x2="841.9229" y2="735.0713">
				<stop  offset="0" style="stop-color:#FFFFFF"/>
				<stop  offset="1" style="stop-color:#000000"/>
			</linearGradient>
			<path fill="url(#SVGID_66_)" d="M834.355,805.443h-16.84c0,0,0.91-71.12-11.402-77.108c-12.332-6.012-27.551,35.14-27.551,35.14
				s-3.195,5.188-6.012,2.951c-2.729-2.131-5.082-11.116-3.971-38.091c2.105-50.182,24.357-76.315,53.996-57.546
				c2.883,1.818,5.855,4.082,8.895,6.813C853.168,697.033,834.355,805.443,834.355,805.443z"/>
			<linearGradient id="SVGID_67_" gradientUnits="userSpaceOnUse" x1="849.084" y1="748.7109" x2="956.457" y2="748.7109">
				<stop  offset="0" style="stop-color:#000000"/>
				<stop  offset="1" style="stop-color:#FFFFFF"/>
			</linearGradient>
			<path fill="url(#SVGID_67_)" d="M944.031,768.177c-24.047,49.603-25.422,26.241-25.422,26.241s6.078-43.456-7.609-43.988
				c-13.289-0.532-42.615,51.755-44.434,55.014c-0.068,0.111-0.09,0.158-0.09,0.158l-17.393-0.158c0,0,35.273-104.86,63.602-111.716
				c1.863-0.445,3.684-0.82,5.436-1.108c9.428-1.555,17.127-0.801,23.094,1.886C960.426,703.176,961.602,731.948,944.031,768.177z"
				/>
			<linearGradient id="SVGID_68_" gradientUnits="userSpaceOnUse" x1="799.8809" y1="562.8643" x2="1100.165" y2="562.8643">
				<stop  offset="0" style="stop-color:#FFFFFF"/>
				<stop  offset="1" style="stop-color:#000000"/>
			</linearGradient>
			<path fill="url(#SVGID_68_)" d="M1099.652,662.513c-17.682,12.269-38.422,30.304-53.863,44.391
				c1.885-16.348,4.969-54.15-0.576-92.174c-3.482-23.957-10.404-48.004-23.227-66.86
				c-41.949-61.783-104.244-99.408-219.666-120.016c0-3.286-0.887-6.367-2.439-9.029c5.568,0.154,20.721,1.685,61.783,9.029
				c18.324,3.282,34.693,6.789,49.445,10.624c0.023,0,0.023,0,0.045,0.023c0.023,0,0.068,0.023,0.09,0.023
				c0.844,0.311,1.707,0.532,2.617,0.663c76.381,20.276,109.434,49.207,148.232,95.613
				C1106.461,587.866,1099.984,657.057,1099.652,662.513z"/>
			<path fill="none" d="M796.619,419.069c0,0,0.135-0.335,3.262-0.245"/>
			<path fill="none" d="M913.861,439.188c-0.865-0.241-1.73-0.442-2.617-0.663"/>
			<path fill="none" d="M1099.652,662.513c-0.023,0.134-0.023,0.225-0.023,0.292"/>
			<path fill="none" d="M1045.789,706.903c-0.6,5.369-1.088,8.43-1.088,8.43"/>
			<linearGradient id="SVGID_69_" gradientUnits="userSpaceOnUse" x1="958.9229" y1="779.8447" x2="1031.2119" y2="779.8447">
				<stop  offset="0" style="stop-color:#FFFFFF"/>
				<stop  offset="1" style="stop-color:#000000"/>
			</linearGradient>
			<path fill="url(#SVGID_69_)" d="M999.734,838.966c-0.221,0.398-0.354,0.62-0.354,0.62l-13.244-0.62l-7.52-0.354
				c0,0,23.869-59.984,22.715-72.809c-1.176-12.801-22.516,3.104-29.902,17.479c-3.107,6.078-6.633,9.23-9.164,8.477
				c-3.438-1.001-4.969-9.341-0.932-27.511c6.988-31.436,34.164-58.232,61.738-35.913
				C1049.271,749.542,1004.238,830.979,999.734,838.966z"/>
			<linearGradient id="SVGID_70_" gradientUnits="userSpaceOnUse" x1="999.7344" y1="742.166" x2="1130.0449" y2="742.166">
				<stop  offset="0" style="stop-color:#000000"/>
				<stop  offset="0.1059" style="stop-color:#050505"/>
				<stop  offset="0.2296" style="stop-color:#131313"/>
				<stop  offset="0.3621" style="stop-color:#2B2B2B"/>
				<stop  offset="0.5011" style="stop-color:#4B4B4B"/>
				<stop  offset="0.645" style="stop-color:#767676"/>
				<stop  offset="0.793" style="stop-color:#A9A9A9"/>
				<stop  offset="0.9416" style="stop-color:#E5E5E5"/>
				<stop  offset="1" style="stop-color:#FFFFFF"/>
			</linearGradient>
			<path fill="url(#SVGID_70_)" d="M1130.045,645.365c0,0-6.768,80.196-52.711,103.021c-31.391,15.597-73.184,83.368-77.6,90.579
				c4.504-7.987,49.537-89.424,23.338-110.631c0,0,9.363-9.23,22.717-21.432c15.441-14.087,36.182-32.122,53.863-44.391
				c2.262-1.594,4.502-3.061,6.654-4.435c12.467-7.9,19.432-11.049,22.25-12.181
				C1129.576,645.499,1130.045,645.365,1130.045,645.365z"/>
			<line fill="none" x1="1128.566" y1="645.904" x2="1021.143" y2="794.408"/>
			<linearGradient id="SVGID_71_" gradientUnits="userSpaceOnUse" x1="965.9707" y1="849.5244" x2="1006.3906" y2="849.5244">
				<stop  offset="0" style="stop-color:#000000"/>
				<stop  offset="1" style="stop-color:#FFFFFF"/>
			</linearGradient>
			<path fill="url(#SVGID_71_)" d="M1006.391,849.526c0,5.455-5.303,9.937-11.779,9.937H977.75c-6.477,0-11.779-4.481-11.779-9.937
				c0-5.483,5.303-9.94,11.779-9.94h16.861C1001.088,839.586,1006.391,844.043,1006.391,849.526z"/>
			<linearGradient id="SVGID_72_" gradientUnits="userSpaceOnUse" x1="559.6953" y1="673.9727" x2="643.9043" y2="673.9727">
				<stop  offset="0" style="stop-color:#3A3738"/>
				<stop  offset="0.565" style="stop-color:#EFEFEF"/>
				<stop  offset="1" style="stop-color:#3A3738"/>
			</linearGradient>
			<path fill="url(#SVGID_72_)" d="M643.904,625.089v45.033h-0.021c-33.83,13.822-40.619,62.339-42.148,85.811
				c-0.711,10.781-0.512,43.168,0,43.168h-3.371c0.508,0,0.709-32.387,0-43.168c-1.488-22.631-7.83-68.596-38.668-84.213v-46.631
				l40.088-76.201c0.531,0.047,1.063,0.067,1.598,0.067c0.818,0,1.619-0.043,2.395-0.11L643.904,625.089z"/>
			<linearGradient id="SVGID_73_" gradientUnits="userSpaceOnUse" x1="554.459" y1="809.8809" x2="648.9863" y2="809.8809">
				<stop  offset="0" style="stop-color:#000000"/>
				<stop  offset="1" style="stop-color:#FFFFFF"/>
			</linearGradient>
			<path fill="url(#SVGID_73_)" d="M648.986,809.882c0,5.924-5.746,10.78-12.779,10.78h-68.969c-7.031,0-12.779-4.856-12.779-10.78
				c0-5.812,5.547-10.628,12.424-10.758c0.111-0.023,0.246-0.023,0.355-0.023h68.969C643.24,799.101,648.986,803.96,648.986,809.882
				z"/>
			<linearGradient id="SVGID_74_" gradientUnits="userSpaceOnUse" x1="213.8262" y1="860.9023" x2="986.1816" y2="860.9023">
				<stop  offset="0" style="stop-color:#3A3738"/>
				<stop  offset="0.0754" style="stop-color:#3E3C3D"/>
				<stop  offset="0.159" style="stop-color:#4C494A"/>
				<stop  offset="0.2467" style="stop-color:#615F60"/>
				<stop  offset="0.337" style="stop-color:#807E7F"/>
				<stop  offset="0.4295" style="stop-color:#A7A6A7"/>
				<stop  offset="0.5225" style="stop-color:#D7D6D6"/>
				<stop  offset="0.565" style="stop-color:#EFEFEF"/>
				<stop  offset="0.5681" style="stop-color:#EDEDED"/>
				<stop  offset="0.6514" style="stop-color:#B7B6B6"/>
				<stop  offset="0.7326" style="stop-color:#8A8989"/>
				<stop  offset="0.8098" style="stop-color:#676566"/>
				<stop  offset="0.8821" style="stop-color:#4E4C4D"/>
				<stop  offset="0.9475" style="stop-color:#3F3C3D"/>
				<stop  offset="1" style="stop-color:#3A3738"/>
			</linearGradient>
			<path fill="url(#SVGID_74_)" d="M986.182,859.463l-1.332,25.621c-5.348,5.479-25.711,24.071-45.965,12.135
				c-23.582-13.886-25.979-32.698-25.979-32.698s-16.594,18.946-39.996,16.149c-28.063-3.349-37.068-29.948-37.068-29.948
				s-26.576,30.592-63.291,31.325c-32.102,0.643-53.553-31.456-53.553-31.456s-22.693,30.723-59.43,31.456
				c-32.078,0.643-60.496-36.938-60.496-36.938s-26.553,37.581-58.633,36.938c-36.736-0.733-59.451-31.456-59.451-31.456
				s-21.43,32.099-53.531,31.456c-36.713-0.733-63.311-31.325-63.311-31.325s-8.986,26.6-37.049,29.948
				c-23.402,2.797-40.02-16.149-40.02-16.149s-2.373,18.813-25.955,32.698c-20.299,11.957-40.686-6.722-45.988-12.154l-1.309-25.602
				c0,0,20.521,35.184,44.08,21.274c23.582-13.886,22.207-41.151,22.207-41.151s26.643,30.213,48.959,22.627
				c21.695-7.365,28.662-35.317,28.994-36.868h11.137c0,0,21.541,29.46,58.254,30.193c32.102,0.643,53.531-31.459,53.531-31.459
				s22.715,30.726,59.451,31.459c32.08,0.643,53.531-34.876,53.531-34.876h12.066c0,0,21.453,35.519,53.531,34.876
				c36.736-0.733,59.43-31.459,59.43-31.459s21.451,32.102,53.553,31.459c36.715-0.733,58.254-30.193,58.254-30.193h11.113
				c0.355,1.551,7.322,29.503,29.018,36.868c22.295,7.586,48.938-22.627,48.938-22.627s-1.375,27.266,22.207,41.151
				C965.662,894.646,986.182,859.463,986.182,859.463z"/>
			<path fill="none" d="M841.918,825.345c0-0.044-0.021-0.067-0.021-0.067"/>
			<line fill="none" x1="985.514" y1="909.064" x2="985.449" y2="906.449"/>
			<path fill="none" d="M215.135,885.064c-0.842-0.888-1.309-1.42-1.309-1.42"/>
			<path fill="none" d="M986.182,883.645c0,0-0.467,0.553-1.332,1.439"/>
			<path fill="none" d="M599.893,883.865c-4.281,0.154-6.588,0.268-6.588,0.268"/>
			<path fill="none" d="M600.004,914.836c-5.059,0.177-7.809,0.308-7.809,0.308"/>
			<polyline fill="none" points="955.813,1014.816 955.813,1014.84 955.744,1015.084 			"/>
			<line fill="none" x1="973.006" y1="955.983" x2="964.598" y2="985.112"/>
			<g>
				<linearGradient id="SVGID_75_" gradientUnits="userSpaceOnUse" x1="757.6152" y1="948.041" x2="816.3926" y2="948.041">
					<stop  offset="0" style="stop-color:#3A3738"/>
					<stop  offset="0.565" style="stop-color:#EFEFEF"/>
					<stop  offset="1" style="stop-color:#3A3738"/>
				</linearGradient>
				<path fill="url(#SVGID_75_)" d="M816.387,949.684c-0.313,5.791-13.732,9.764-29.973,8.876
					c-16.215-0.911-29.105-6.367-28.793-12.158c0.332-5.813,13.754-9.782,29.971-8.875
					C803.83,938.438,816.717,943.873,816.387,949.684z"/>
				<linearGradient id="SVGID_76_" gradientUnits="userSpaceOnUse" x1="745.8867" y1="948.043" x2="828.1387" y2="948.043">
					<stop  offset="0" style="stop-color:#000000"/>
					<stop  offset="1" style="stop-color:#FFFFFF"/>
				</linearGradient>
				<path fill="url(#SVGID_76_)" d="M788.213,926.26c-22.695-1.267-41.641,7.452-42.307,19.476
					c-0.688,12.047,17.17,22.805,39.889,24.091c22.693,1.266,41.639-7.476,42.326-19.499
					C828.787,938.304,810.928,927.522,788.213,926.26z M786.414,958.56c-16.215-0.911-29.105-6.367-28.793-12.158
					c0.332-5.813,13.754-9.782,29.971-8.875c16.238,0.911,29.125,6.347,28.795,12.157
					C816.074,955.475,802.654,959.447,786.414,958.56z"/>
			</g>
			<g>
				<polygon fill="none" points="964.307,986.09 964.242,986.378 963.908,987.554 963.885,987.554 				"/>
				<linearGradient id="SVGID_77_" gradientUnits="userSpaceOnUse" x1="913.0566" y1="973.1035" x2="973.0488" y2="973.1035">
					<stop  offset="0" style="stop-color:#000000"/>
					<stop  offset="1" style="stop-color:#FFFFFF"/>
				</linearGradient>
				<path fill="url(#SVGID_77_)" d="M973.049,956.007l-8.451,29.105l-0.291,0.978l5.613-20.5
					c-15.107-6.233-44.967-8.785-44.967,0.134c0,9.273,32.988,23.14,38.912,21.83l-2.773,9.404
					c-7.832,1.377-52.998-13.531-47.586-33.874c3.105-11.625,22.85-17.104,45.012-12.023c6.232,1.44,9.561,2.375,14.488,4.923
					C973.025,955.983,973.025,956.007,973.049,956.007z"/>
				<linearGradient id="SVGID_78_" gradientUnits="userSpaceOnUse" x1="924.9531" y1="973.7891" x2="969.9199" y2="973.7891">
					<stop  offset="0" style="stop-color:#3A3738"/>
					<stop  offset="0.565" style="stop-color:#EFEFEF"/>
					<stop  offset="1" style="stop-color:#3A3738"/>
				</linearGradient>
				<path fill="url(#SVGID_78_)" d="M969.92,965.59l-5.613,20.5l-0.422,1.464h-0.02c-5.924,1.31-38.912-12.557-38.912-21.83
					C924.953,956.805,954.813,959.356,969.92,965.59z"/>
				<polygon fill="none" points="963.865,987.554 963.885,987.554 961.156,996.958 961.092,996.958 				"/>
				<polygon fill="none" points="964.307,986.09 964.242,986.378 963.885,987.554 				"/>
			</g>
			<linearGradient id="SVGID_79_" gradientUnits="userSpaceOnUse" x1="857.0059" y1="959.9443" x2="891.6992" y2="959.9443">
				<stop  offset="0" style="stop-color:#3A3738"/>
				<stop  offset="0.565" style="stop-color:#EFEFEF"/>
				<stop  offset="1" style="stop-color:#3A3738"/>
			</linearGradient>
			<polygon fill="url(#SVGID_79_)" points="891.699,963.084 872.488,973.865 857.006,958.623 876.039,946.023 			"/>
			<linearGradient id="SVGID_80_" gradientUnits="userSpaceOnUse" x1="681.752" y1="940.8984" x2="716.7129" y2="940.8984">
				<stop  offset="0" style="stop-color:#3A3738"/>
				<stop  offset="0.565" style="stop-color:#EFEFEF"/>
				<stop  offset="1" style="stop-color:#3A3738"/>
			</linearGradient>
			<polygon fill="url(#SVGID_80_)" points="716.713,941.076 699.566,954.919 681.752,942.496 698.412,926.879 			"/>
			<g>
				<linearGradient id="SVGID_81_" gradientUnits="userSpaceOnUse" x1="260.4355" y1="1001.6172" x2="955.9668" y2="1001.6172">
					<stop  offset="0" style="stop-color:#3A3738"/>
					<stop  offset="0.565" style="stop-color:#EFEFEF"/>
					<stop  offset="1" style="stop-color:#3A3738"/>
				</linearGradient>
				<path fill="url(#SVGID_81_)" d="M955.967,1015.925c0,3.061-3.395,6.012-9.717,8.852c-23.561-16.371-165.047-28.95-336.086-28.95
					c-158.215,0-291.164,10.784-328.854,25.337c-4.17,1.239-7.766,2.505-10.717,3.814c-6.609-2.907-10.158-5.925-10.158-9.053
					c0-0.841,0.244-1.665,0.754-2.485c11.801-19.653,162.652-35.184,347-35.184c188.652,0,342.232,16.264,347.623,36.561v0.023
					C955.922,1015.215,955.967,1015.55,955.967,1015.925z"/>
				<path fill="none" d="M946.25,1024.776c-0.133,0.067-0.289,0.134-0.443,0.201c-37.447-16.418-174.367-28.596-337.617-28.596
					c-150.318,0-278.342,10.339-326.879,24.781c37.689-14.553,170.639-25.337,328.854-25.337
					C781.203,995.826,922.689,1008.405,946.25,1024.776z"/>
			</g>
			<linearGradient id="SVGID_82_" gradientUnits="userSpaceOnUse" x1="270.6172" y1="1029.8789" x2="949.6875" y2="1029.8789">
				<stop  offset="0" style="stop-color:#000000"/>
				<stop  offset="0.141" style="stop-color:#030303"/>
				<stop  offset="0.2516" style="stop-color:#0D0D0D"/>
				<stop  offset="0.3519" style="stop-color:#1E1E1E"/>
				<stop  offset="0.4461" style="stop-color:#353535"/>
				<stop  offset="0.5352" style="stop-color:#535353"/>
				<stop  offset="0.57" style="stop-color:#616161"/>
				<stop  offset="0.591" style="stop-color:#565656"/>
				<stop  offset="0.662" style="stop-color:#373737"/>
				<stop  offset="0.7362" style="stop-color:#1F1F1F"/>
				<stop  offset="0.8142" style="stop-color:#0E0E0E"/>
				<stop  offset="0.8984" style="stop-color:#030303"/>
				<stop  offset="1" style="stop-color:#000000"/>
			</linearGradient>
			<path fill="url(#SVGID_82_)" d="M949.688,1029.612c0,18.659-152.004,33.764-339.523,33.764
				c-187.521,0-339.547-15.104-339.547-33.764c0-2.927,3.705-5.743,10.693-8.449c48.537-14.442,176.561-24.781,326.879-24.781
				c163.25,0,300.17,12.178,337.617,28.596c0.154-0.067,0.311-0.134,0.443-0.201
				C948.512,1026.351,949.688,1027.972,949.688,1029.612z"/>
			<path fill="none" d="M946.25,1024.776c-0.133,0.067-0.289,0.134-0.443,0.201c-37.447-16.418-174.367-28.596-337.617-28.596
				c-150.318,0-278.342,10.339-326.879,24.781c37.689-14.553,170.639-25.337,328.854-25.337
				C781.203,995.826,922.689,1008.405,946.25,1024.776z"/>
			<linearGradient id="SVGID_83_" gradientUnits="userSpaceOnUse" x1="473.9351" y1="760.0527" x2="473.935" y2="277.5122">
				<stop  offset="0" style="stop-color:#000000"/>
				<stop  offset="1" style="stop-color:#616161"/>
			</linearGradient>
			<path fill="url(#SVGID_83_)" d="M593.971,820.662c0,0-21.451,35.519-53.531,34.876c-36.736-0.733-59.451-31.459-59.451-31.459
				s-21.43,32.102-53.531,31.459c-36.713-0.733-58.254-30.193-58.254-30.193h15.373c5.945,0,10.826-4.481,10.826-9.938
				c0-5.482-4.881-9.964-10.826-9.964h-2.084c0,0-0.934-71.12,11.402-77.108c12.332-6.012,27.551,35.14,27.551,35.14
				s3.195,5.188,6.012,2.951c2.707-2.131,5.08-11.093,3.949-38.091c-2.107-50.182-24.336-76.315-53.975-57.546
				c-5.723-11.069-13.131-21.476-21.273-31.034c0,0-7.721-33.767,5.391-66.532c3.105-7.764,8.164-18.012,17.701-30.324
				c45.611-10.071,99.342-17.416,162.279-19.854c-13.777,72.142,1.797,134.035,4.59,144.216c-0.377-0.066-0.775-0.134-1.174-0.2
				c-43.684-6.679-57.547,21.562-49.316,52.91c8.207,31.346,18.789,45.231,31.832,42.636c5.637-1.108,4.639-5.124,4.129-22.604
				c-0.533-17.46,2.529-32.679,11.289-31.325c23.582,3.617,24.182,74.604,24.004,90.445c-6.877,0.13-12.424,4.946-12.424,10.758
				c0,5.924,5.748,10.78,12.779,10.78H593.971z"/>
			<path fill="none" d="M574.646,522.225c1.133-0.023,2.287-0.023,3.416-0.047c0.334,0,0.668-0.02,1,0
				c1.596-0.02,3.193-0.02,4.791-0.02c0.156,0,0.311,0,0.467,0c0.844,0,1.686,0,2.551,0c1.219,0,2.463,0,3.705,0.02
				c0.311,0,0.643,0,0.977,0c0.33,0,0.688,0,1.02,0s0.688,0,1.021,0c1.264,0,2.529,0.023,3.814,0.023c0.088,0,0.199,0,0.311,0
				c0.045,0,0.066,0,0.111,0c0.199,0,0.4,0,0.6,0c0.088,0,0.154,0,0.242,0c0.023,0,0.045,0,0.09,0c0.023,0,0.045,0,0.066,0
				c0,0,0.021,0,0.043,0c0.135,0,0.268,0,0.379,0c0.066,0,0.133,0,0.199,0c0.09,0,0.154,0,0.242,0l0.023,0.023h0.023
				c0.023-0.023,0.045,0,0.045,0h0.021h0.021h0.023v-0.023c0.021,0,0.021,0,0.043,0v0.023h0.023h0.021h0.023
				c0.131,0,0.266,0,0.398,0c0.045,0,0.066,0,0.109,0c0.313,0,0.6,0,0.912,0"/>
			<path fill="none" d="M318.135,559.337c-14.064,4.525-27.063,9.25-39.088,14.13"/>
			<path fill="none" d="M661.254,523.132c61.627,2.485,114.379,9.672,159.303,19.522"/>
			<path fill="none" d="M599.539,522.225c0.064,0,0.133,0,0.176,0h0.023v-0.023c0.023,0,0.023,0,0.045,0v0.023
				c0.021-0.023,0.021,0,0.021,0s0-0.023,0.021,0h0.023v-0.023c0.021,0,0.021,0,0.043,0v0.023h0.023c0.021-0.023,0.021,0,0.021,0
				s0-0.023,0.023,0c0.131,0,0.266,0,0.398,0c0.045,0,0.066,0,0.109,0c0.313,0,0.6,0,0.912,0c0.953-0.023,1.906-0.047,2.838-0.047
				c0.021,0,0.045,0,0.066,0s0.066,0,0.088,0c0.268,0,0.533,0,0.801,0c0.043,0,0.088,0,0.131,0c0.4,0,0.822-0.02,1.223,0
				c0.797-0.02,1.572-0.02,2.371-0.02c0.023,0,0.045,0,0.068,0c0.332,0,0.688,0,1.02,0c0.865,0,1.707,0,2.574,0
				c0.221,0,0.443,0,0.643,0c0.398,0,0.799,0,1.176,0c0.4,0.02,0.799,0.02,1.199,0.02c0.221,0,0.441,0,0.643,0
				c0.178,0,0.377,0,0.555,0c0.355,0,0.688,0,1.02,0c0.334,0,0.688,0,1.021,0c0.332,0,0.664,0,0.998,0
				c2.262,0.023,4.504,0.023,6.744,0.067c0.51,0,1.043,0,1.553,0"/>
			<path fill="none" d="M600.359,522.225c-0.133,0-0.268,0-0.398,0h-0.023h-0.021l-0.023-0.023c-0.021,0-0.021,0-0.043,0
				l-0.023,0.023h-0.021h-0.021c0,0-0.021-0.023-0.045,0h-0.023c-0.043,0-0.111,0-0.176,0c-0.047,0-0.113,0-0.178,0
				c-0.135,0-0.289,0-0.422,0c0,0-0.021-0.023-0.045,0c-0.023-0.023-0.023-0.023-0.023-0.023c-0.021,0-0.043,0-0.043,0
				s0,0-0.021,0.023h-0.021c0,0,0-0.023-0.023,0c0,0,0-0.023-0.021,0h-0.023c-0.021-0.023-0.021-0.023-0.045-0.023
				c-0.088,0-0.154,0-0.242,0c-0.199,0-0.4,0-0.6,0c-0.045,0-0.066,0-0.111,0c-0.111,0-0.223,0-0.311,0
				c-1.285,0-2.551-0.023-3.814-0.023c-0.334,0-0.689,0-1.021,0s-0.689,0-1.02,0c-0.334,0-0.666,0-0.977,0
				c-1.242-0.02-2.486-0.02-3.705-0.02c-0.865,0-1.707,0-2.551,0c-0.156,0-0.311,0-0.467,0c-1.598,0-3.195,0-4.791,0.02
				c-0.332-0.02-0.666,0-1,0c-1.129,0.023-2.283,0.023-3.416,0.047"/>
			<path fill="none" d="M379.475,542.631c45.586-9.98,99.252-17.235,162.055-19.609"/>
			<path fill="none" d="M318.246,558.982c-14.242,4.548-27.42,9.317-39.598,14.241"/>
			<path fill="none" d="M661.254,523.156c61.76,2.549,114.58,9.85,159.525,19.767"/>
			<path fill="none" d="M599.938,522.225h0.023c0.131,0,0.266,0,0.398,0c0.045,0,0.066,0,0.109,0
				c0.932-0.023,1.865-0.047,2.795-0.047c0.334,0,0.645,0,0.955,0c0.021,0,0.045,0,0.066,0s0.066,0,0.088,0
				c0.268-0.02,0.533-0.02,0.801,0c0.043,0,0.088,0,0.131,0c0.4,0,0.822-0.02,1.223,0c0.797-0.02,1.572-0.02,2.371-0.02
				c0.023,0,0.045,0,0.068,0c0.332,0,0.688,0,1.02,0c0.865,0,1.707,0,2.574,0c0.221,0,0.443,0,0.643,0c0.398,0,0.799,0,1.176,0
				c0.4,0.02,0.799,0.02,1.199,0.02c0.221,0,0.441,0,0.643,0c0.178,0,0.377,0,0.555,0c0.355,0,0.688,0,1.02,0
				c0.334,0,0.688,0,1.021,0c0.332,0,0.664,0,0.998,0c2.262,0.023,4.504,0.023,6.744,0.067c0.51,0,1.043,0,1.553,0"/>
			<path fill="none" d="M599.938,522.201v0.023c0,0,0-0.023-0.021,0h-0.023c0,0-0.021-0.023-0.043,0h-0.023
				c-0.021-0.023-0.021,0-0.021,0"/>
			<path fill="none" d="M599.805,522.201v0.023c0,0,0-0.023-0.021,0c0,0-0.021-0.023-0.045,0h-0.023c-0.043,0-0.111,0-0.176,0
				c-0.047,0-0.113,0-0.178,0c-0.135,0-0.289,0-0.422,0c0,0-0.021-0.023-0.045,0c-0.023-0.023-0.023-0.023-0.023-0.023
				c-0.021,0-0.043,0-0.043,0s0,0-0.021,0.023c-0.021-0.023-0.021,0-0.021,0s0-0.023-0.023-0.023c0,0,0,0-0.021,0.023
				c0,0,0-0.023-0.023,0c-0.066,0-0.133,0-0.199,0"/>
			<path fill="none" d="M599.361,522.225c-0.135,0-0.289,0-0.422,0c0,0-0.021-0.023-0.045,0c-0.023-0.023-0.023-0.023-0.023-0.023
				c-0.021,0-0.043,0-0.043,0s0,0-0.021,0.023c-0.021-0.023-0.021,0-0.021,0h-0.023h-0.021c0,0,0-0.023-0.023,0
				c-0.066,0-0.133,0-0.199,0c-0.045,0-0.111,0-0.176,0c-0.135,0-0.291,0-0.422,0c0,0-0.025-0.023-0.047,0
				c-0.021-0.023-0.021-0.023-0.043-0.023c0,0-0.023,0-0.045,0.023c-0.021,0-0.021-0.023-0.043,0c-0.023,0-0.047,0-0.09,0h-0.021
				c-0.066-0.023-0.156-0.023-0.223-0.023c-1.285,0-2.551-0.023-3.814-0.023c-0.334,0-0.689,0-1.021,0s-0.689,0-1.02,0
				c-0.334,0-0.666,0-0.977,0c-1.242-0.02-2.486-0.02-3.705-0.02c-0.865,0-1.707,0-2.551,0c-0.156,0-0.311,0-0.467,0
				c-1.598,0-3.195,0-4.791,0.02c-0.332-0.02-0.666,0-1,0c-0.33,0-0.686,0-1.02,0c-0.799,0-1.596,0-2.396,0.023"/>
			<path fill="none" d="M379.674,542.367c45.588-9.894,99.184-17.081,161.877-19.388"/>
			<path fill="none" d="M550.289,522.667c3.283-0.087,6.611-0.178,9.939-0.245c0.178,0,0.332,0,0.488,0"/>
			<path fill="none" d="M318.379,558.604c-14.441,4.571-27.795,9.408-40.131,14.375"/>
			<path fill="none" d="M661.254,523.199c61.869,2.619,114.779,9.984,159.725,19.988"/>
			<path fill="none" d="M628.111,522.268c-0.51,0-1.043,0-1.553-0.023c-0.334,0-0.688,0-1.021,0
				c-1.908-0.02-3.814-0.043-5.723-0.067c-0.334,0-0.666,0-0.998,0c-0.334,0-0.688,0-1.021,0c-0.332,0-0.664,0-1.02,0
				c-0.178,0-0.377,0-0.555,0c-0.201,0-0.422,0-0.643,0c-0.4,0-0.799,0-1.199-0.02c-0.377,0-0.777,0-1.176,0
				c-0.199,0-0.422,0-0.643,0c-0.867,0-1.709,0-2.574,0c-0.332,0-0.688,0-1.02,0c-0.023,0-0.045,0-0.068,0
				c-0.799,0-1.574,0-2.371,0.02c-0.4-0.02-0.822,0-1.223,0c-0.043,0-0.088,0-0.131,0c-0.268-0.02-0.533-0.02-0.801,0
				c-0.021,0-0.066,0-0.088,0s-0.045,0-0.066,0c-0.311,0-0.621,0-0.955,0c-1.086,0-2.24,0-3.326,0.023c-0.021,0-0.021,0-0.045,0
				c-0.021,0-0.021,0-0.043,0c-0.023,0-0.023,0-0.045,0h-0.021c-0.021,0-0.021,0-0.045,0s-0.023,0-0.047,0c-0.088,0-0.152,0-0.242,0
				c-0.066,0-0.133,0-0.199,0c-0.111,0-0.201,0-0.311,0.023c0,0-0.021-0.023-0.045,0c-0.023-0.023-0.023-0.023-0.023-0.023
				c-0.021,0-0.043,0-0.043,0s0,0-0.021,0.023c-0.021-0.023-0.021,0-0.021,0s0-0.023-0.023-0.023c0,0,0,0-0.021,0.023
				c0,0,0-0.023-0.023,0c-0.066,0-0.133,0-0.199,0c-0.045,0-0.111,0-0.176,0c-0.135,0-0.291,0-0.422,0c0,0-0.025-0.023-0.047,0
				c-0.021-0.023-0.021-0.023-0.043-0.023c0,0-0.023,0-0.045,0.023c-0.021,0-0.021-0.023-0.043,0l-0.023-0.023
				c-0.023,0-0.045,0-0.066,0.023h-0.021c-0.023,0-0.066,0-0.111,0"/>
			<path fill="none" d="M598.342,522.225c-0.135,0-0.291,0-0.422,0c0,0-0.025-0.023-0.047,0c-0.021-0.023-0.021-0.023-0.043-0.023
				c0,0-0.023,0-0.045,0.023c-0.021,0-0.021-0.023-0.043,0c-0.023,0-0.047,0-0.09,0h-0.021c-0.023,0-0.066,0-0.111,0
				s-0.111,0-0.178,0h-0.354c-0.023,0-0.045,0-0.068,0h-0.021h-0.4h-0.088h-0.932c-0.51-0.023-1-0.023-1.508-0.023
				c-0.135-0.023-0.244-0.023-0.377-0.023c-0.334,0-0.689,0-1.021,0s-0.689,0-1.02,0c-0.334,0-0.666,0-0.977,0
				c-1.242-0.02-2.486-0.02-3.705-0.02c-0.865,0-1.707,0-2.551,0c-0.156,0-0.311,0-0.467,0c-1.598,0-3.195,0-4.791,0.02
				c-0.332-0.02-0.666,0-1,0c-0.33,0-0.686,0-1.02,0c-0.799,0-1.596,0-2.396,0.023"/>
			<path fill="none" d="M379.873,542.099c45.566-9.827,99.119-16.904,161.678-19.167"/>
			<path fill="none" d="M550.289,522.644c1.643-0.044,3.283-0.087,4.947-0.131c1.664-0.047,3.328-0.067,4.992-0.09
				c1.197-0.043,2.395-0.067,3.594-0.087"/>
			<path fill="none" d="M318.492,558.249c-14.645,4.615-28.176,9.475-40.643,14.465"/>
			<path fill="none" d="M661.275,523.243c62.004,2.686,114.957,10.138,159.924,20.233"/>
			<path fill="none" d="M628.111,522.289c-0.867-0.021-1.709-0.021-2.574-0.044c-0.332,0-0.688,0-1.02,0
				c-1.908-0.02-3.793-0.043-5.701-0.067c-0.334,0-0.688,0-1.021,0c-0.332,0-0.664,0-1.02,0c-0.178,0-0.377,0-0.555,0
				c-0.201,0-0.422,0-0.643,0c-0.4,0-0.799,0-1.199-0.02c-0.377,0-0.777,0-1.176,0c-0.199,0-0.422,0-0.643,0
				c-0.867,0-1.709,0-2.574,0c-0.332,0-0.688,0-1.02,0c-0.023,0-0.045,0-0.068,0c-0.799,0-1.574,0-2.371,0.02
				c-0.4-0.02-0.822,0-1.223,0c-0.043,0-0.088,0-0.131,0c-0.268-0.02-0.533-0.02-0.801,0c-0.021,0-0.066,0-0.088,0s-0.045,0-0.066,0
				c-0.311,0-0.621,0-0.955,0c-1.086,0-2.24,0-3.326,0.023c-0.021,0-0.021,0-0.045,0c-0.021,0-0.021,0-0.043,0
				c-0.023,0-0.023,0-0.045,0h-0.021c-0.021,0-0.021,0-0.045,0s-0.023,0-0.047,0c-0.088,0-0.152,0-0.242,0c-0.066,0-0.133,0-0.199,0
				c-0.111,0-0.244,0-0.379,0c-0.021,0-0.043,0-0.043,0c-0.021,0-0.043,0-0.066,0c-0.045,0-0.066,0-0.09,0c-0.088,0-0.154,0-0.242,0
				c-0.178,0-0.334,0-0.51,0.023c0,0-0.025-0.023-0.047,0c-0.021-0.023-0.021-0.023-0.043-0.023c0,0-0.023,0-0.045,0.023
				c-0.021,0-0.021-0.023-0.043,0l-0.023-0.023c-0.023,0-0.045,0-0.066,0.023h-0.021c-0.023,0-0.066,0-0.111,0s-0.111,0-0.178,0
				h-0.354c-0.023,0-0.045,0-0.068,0h-0.021h-0.4"/>
			<path fill="none" d="M318.58,557.894c-14.799,4.639-28.484,9.542-41.084,14.576"/>
			<path fill="none" d="M380.072,541.834c45.545-9.716,99.029-16.75,161.479-18.923"/>
			<linearGradient id="SVGID_84_" gradientUnits="userSpaceOnUse" x1="619.4141" y1="509.7441" x2="666.8486" y2="509.7441">
				<stop  offset="0" style="stop-color:#FFFFFF"/>
				<stop  offset="1" style="stop-color:#000000"/>
			</linearGradient>
			<path fill="url(#SVGID_84_)" d="M656.752,666.84c-0.535,0.067-1.066,0.134-1.598,0.222c-2.465,0.378-4.791,0.91-7.01,1.598
				c3.238-12.466,17.9-75.069,4.367-145.704c0-0.023,0-0.044,0-0.044c0-0.023,0-0.043,0-0.043h-0.021c0-0.023,0-0.023,0-0.023
				c0-0.023,0-0.043,0-0.043c-4.17-21.72-11.002-44.37-21.629-66.796c-12.799-26.975-11.402-105.175-11.402-105.175h8.697
				c0,0-0.045,2.773-0.045,7.479c0,2.951,0.023,6.675,0.109,10.936v0.023c0.066,4.347,0.201,9.25,0.379,14.509
				c0.977,24.71,3.637,56.833,10.959,72.229c8.961,18.899,16.682,40.887,21.695,67.128c0,0,0,0,0,0.023c0,0,0,0.02,0,0.043
				c0,0,0.021,0.023,0.021,0.043c0,0,0,0.023,0,0.047C674.807,594.387,659.834,655.483,656.752,666.84z"/>
			<linearGradient id="SVGID_85_" gradientUnits="userSpaceOnUse" x1="493.377" y1="732.5986" x2="598.8228" y2="732.5986">
				<stop  offset="0" style="stop-color:#FFFFFF"/>
				<stop  offset="1" style="stop-color:#000000"/>
			</linearGradient>
			<path fill="url(#SVGID_85_)" d="M598.363,799.101h-31.125c-0.109,0-0.244,0-0.355,0.023c0.178-15.842-0.422-86.828-24.004-90.445
				c-8.76-1.354-11.822,13.865-11.289,31.325c0.51,17.479,1.508,21.495-4.129,22.604c-13.043,2.596-23.625-11.29-31.832-42.636
				c-8.23-31.349,5.633-59.589,49.316-52.91c0.398,0.066,0.797,0.134,1.174,0.2c3.307,0.576,6.412,1.44,9.295,2.572
				c1.486,0.557,2.906,1.199,4.281,1.886c30.838,15.617,37.18,61.582,38.668,84.213
				C599.072,766.714,598.871,799.101,598.363,799.101z"/>
			<linearGradient id="SVGID_86_" gradientUnits="userSpaceOnUse" x1="544.8369" y1="511.2744" x2="658.1504" y2="511.2744">
				<stop  offset="0" style="stop-color:#000000"/>
				<stop  offset="0.1886" style="stop-color:#050505"/>
				<stop  offset="0.3986" style="stop-color:#121212"/>
				<stop  offset="0.619" style="stop-color:#282828"/>
				<stop  offset="0.8449" style="stop-color:#474747"/>
				<stop  offset="1" style="stop-color:#616161"/>
			</linearGradient>
			<path fill="url(#SVGID_86_)" d="M648.145,668.659c-1.467,0.422-2.863,0.91-4.24,1.463v-45.033l-40.129-76.245
				c13.6-1.199,24.291-12.6,24.336-26.532v-0.087c0-13.668-10.205-24.891-23.404-26.532c9.672-1.574,17.037-9.96,17.037-20.079
				c0-10.403-7.809-19.01-17.902-20.209c7.32-1.152,12.934-7.519,12.934-15.172c0-7.834-5.857-14.311-13.422-15.242
				c5.17-0.931,9.051-5.456,9.051-10.868c0-5.57-4.127-10.185-9.518-10.915c3.395-0.687,5.967-3.705,5.967-7.322
				c0-4.149-3.348-7.499-7.473-7.499c-4.129,0-7.479,3.349-7.479,7.499c0,3.617,2.574,6.635,5.969,7.322
				c-5.393,0.73-9.539,5.345-9.539,10.915c0,5.412,3.904,9.937,9.072,10.868c-7.564,0.931-13.42,7.408-13.42,15.242
				c0,7.653,5.611,14.02,12.934,15.172c-10.096,1.199-17.904,9.806-17.904,20.209c0,10.118,7.365,18.504,17.037,20.079
				c-13.199,1.641-23.381,12.864-23.404,26.509c-1.129,0-2.217,0.023-3.326,0.043h1.02c0.777-0.02,1.529-0.02,2.307-0.02
				c0,14.241,11.117,25.866,25.137,26.663l-40.088,76.201v46.631c-1.375-0.687-2.795-1.329-4.281-1.886
				c-4.215-16.395-18.189-79.171-5.125-147.1c0-0.023,0-0.023,0-0.023c3.463-0.111,6.922-0.198,10.428-0.288
				c1.043-0.02,2.063-0.043,3.105-0.087c-2.861,0.02-5.746,0.087-8.586,0.177c-1.641,0.02-3.283,0.067-4.924,0.11
				c4.17-21.672,10.98-44.256,21.584-66.619c12.801-26.975,11.402-105.175,11.402-105.175h36.16c0,0-1.396,78.201,11.402,105.175
				c10.627,22.426,17.459,45.077,21.629,66.796c-1.598-0.047-3.217-0.11-4.836-0.134c1.619,0.067,3.217,0.11,4.836,0.177
				c0,0,0,0,0,0.023h0.021c0,0,0,0.02,0,0.043c0,0,0,0.021,0,0.044C666.045,593.59,651.383,656.193,648.145,668.659z"/>
			<path fill="none" d="M596.92,522.225h-0.021h-0.4h-0.088h-0.932c-0.51-0.023-1-0.023-1.508-0.023
				c-0.467-0.023-0.934-0.023-1.398-0.023c-0.332,0-0.689,0-1.02,0c-0.334,0-0.666,0-0.977,0c-1.242-0.02-2.486-0.02-3.705-0.02
				c-0.865,0-1.707,0-2.551,0c-0.156,0-0.311,0-0.467,0c-1.598,0-3.195,0-4.791,0.02c-0.332-0.02-0.666,0-1,0
				c-0.33,0-0.686,0-1.02,0c-0.799,0-1.596,0-2.396,0.023"/>
			<path fill="none" d="M597.52,522.225c-0.045,0-0.111,0-0.178,0h-0.422h-0.021h-0.4h-0.088"/>
			<linearGradient id="SVGID_87_" gradientUnits="userSpaceOnUse" x1="601.2725" y1="732.5898" x2="706.7158" y2="732.5898">
				<stop  offset="0" style="stop-color:#000000"/>
				<stop  offset="1" style="stop-color:#FFFFFF"/>
			</linearGradient>
			<path fill="url(#SVGID_87_)" d="M704.467,719.972c-8.207,31.346-18.789,45.231-31.834,42.636
				c-5.633-1.108-4.635-5.124-4.127-22.604c0.535-17.46-2.527-32.679-11.289-31.325c-23.561,3.594-23.693,74.54-23.426,90.422
				h-32.057c-0.512,0-0.711-32.387,0-43.168c1.529-23.472,8.318-71.988,42.148-85.811l0.021,0.023v-0.023
				c1.377-0.553,2.773-1.041,4.24-1.463c2.219-0.688,4.545-1.22,7.01-1.598c0.531-0.088,1.063-0.154,1.598-0.222
				C699.168,661.073,712.588,689.002,704.467,719.972z"/>
			<linearGradient id="SVGID_88_" gradientUnits="userSpaceOnUse" x1="822.5762" y1="692.4277" x2="919.6992" y2="692.4277">
				<stop  offset="0" style="stop-color:#000000"/>
				<stop  offset="1" style="stop-color:#FFFFFF"/>
			</linearGradient>
			<path fill="url(#SVGID_88_)" d="M918.121,692.619c-1.752,0.288-3.572,0.663-5.436,1.108
				c-28.328,6.855-63.602,111.716-63.602,111.716h-14.729c0,0,18.813-108.41-2.885-127.842c-3.039-2.73-6.012-4.994-8.895-6.813
				c5.723-11.069,13.131-21.476,21.273-31.034c4.459-5.258,9.162-10.252,13.908-14.931c0,0,0-0.023,0.023-0.043
				c28.15-27.819,58.564-45.369,58.564-45.369C921.869,612.513,919.141,673.85,918.121,692.619z"/>
			<linearGradient id="SVGID_89_" gradientUnits="userSpaceOnUse" x1="726.0723" y1="760.0527" x2="726.0723" y2="277.5128">
				<stop  offset="0" style="stop-color:#000000"/>
				<stop  offset="1" style="stop-color:#616161"/>
			</linearGradient>
			<path fill="url(#SVGID_89_)" d="M768.58,728.335c-1.111,26.975,1.242,35.96,3.971,38.091c2.816,2.237,6.012-2.951,6.012-2.951
				s15.219-41.151,27.551-35.14c12.313,5.988,11.402,77.108,11.402,77.108h-2.105c-5.947,0-10.826,4.481-10.826,9.964
				c0,5.456,4.879,9.938,10.826,9.938h15.395c0,0-21.539,29.46-58.254,30.193c-32.102,0.643-53.553-31.459-53.553-31.459
				s-22.693,30.726-59.43,31.459c-32.078,0.643-53.531-34.876-53.531-34.876h30.17c7.033,0,12.779-4.856,12.779-10.78
				c0-5.922-5.746-10.781-12.779-10.781h-2.416c-0.268-15.882-0.135-86.828,23.426-90.422c8.762-1.354,11.824,13.865,11.289,31.325
				c-0.508,17.479-1.506,21.495,4.127,22.604c13.045,2.596,23.627-11.29,31.834-42.636c8.121-30.97-5.299-58.898-47.715-53.132
				c3.082-11.356,18.055-72.453,4.523-143.55c62.137,2.75,115.135,10.269,160.123,20.451h0.023
				c9.094,11.937,13.998,21.897,17.035,29.483c13.113,32.765,5.393,66.532,5.393,66.532c-8.143,9.559-15.551,19.965-21.273,31.034
				C792.938,652.02,770.686,678.153,768.58,728.335z"/>
			<path fill="none" d="M628.111,522.312c-1.199-0.023-2.396-0.044-3.594-0.067c-1.908-0.02-3.793-0.043-5.701-0.067
				c-0.334,0-0.688,0-1.021,0c-0.332,0-0.664,0-1.02,0c-0.178,0-0.377,0-0.555,0c-0.201,0-0.422,0-0.643,0
				c-0.4,0-0.799,0-1.199-0.02c-0.377,0-0.777,0-1.176,0c-0.199,0-0.422,0-0.643,0c-0.867,0-1.709,0-2.574,0
				c-0.332,0-0.688,0-1.02,0c-0.023,0-0.045,0-0.068,0c-0.799,0-1.574,0-2.371,0.02c-0.4-0.02-0.822,0-1.223,0
				c-0.043,0-0.088,0-0.131,0c-0.268-0.02-0.533-0.02-0.801,0c-0.021,0-0.066,0-0.088,0s-0.045,0-0.066,0
				c-0.311-0.02-0.643-0.02-0.955,0c-1.086,0-2.24,0-3.326,0.023c-0.021,0-0.021,0-0.045,0c-0.021,0-0.021,0-0.043,0
				c-0.023,0-0.023,0-0.045,0h-0.021c-0.021,0-0.021,0-0.045,0s-0.023,0-0.047,0c-0.088,0-0.152,0-0.242,0c-0.066,0-0.133,0-0.199,0
				c-0.111,0-0.244,0-0.379,0c-0.021,0-0.043,0-0.043,0c-0.021,0-0.043,0-0.066,0c-0.045,0-0.066,0-0.09,0c-0.088,0-0.154,0-0.242,0
				c-0.199,0-0.4,0-0.6,0c-0.045,0-0.066,0-0.111,0c-0.111,0-0.223,0-0.311,0c-0.133,0-0.266,0-0.42,0.023c-0.023,0-0.045,0-0.068,0
				h-0.021h-0.4h-0.088h-0.932"/>
		</g>
		<linearGradient id="SVGID_90_" gradientUnits="userSpaceOnUse" x1="151.5122" y1="731.6035" x2="358.0664" y2="731.6035">
			<stop  offset="0" style="stop-color:#616161"/>
			<stop  offset="0.0024" style="stop-color:#606060"/>
			<stop  offset="0.0994" style="stop-color:#424242"/>
			<stop  offset="0.206" style="stop-color:#2A2A2A"/>
			<stop  offset="0.3266" style="stop-color:#171717"/>
			<stop  offset="0.4675" style="stop-color:#0A0A0A"/>
			<stop  offset="0.6474" style="stop-color:#020202"/>
			<stop  offset="1" style="stop-color:#000000"/>
		</linearGradient>
		<path fill="url(#SVGID_90_)" d="M358.066,825.345c-0.332,1.551-7.299,29.503-28.994,36.868
			c-22.316,7.586-48.959-22.627-48.959-22.627s1.375,27.266-22.207,41.151c-23.559,13.909-44.08-21.274-44.08-21.274h8.432
			c6.477,0,11.756-4.481,11.756-9.937c0-5.483-5.279-9.94-11.756-9.94h-8.055c0,0-0.109-0.222-0.332-0.62l7.52-0.354
			c0,0-23.891-59.984-22.715-72.809c1.152-12.801,22.516,3.104,29.881,17.479c3.129,6.078,6.654,9.23,9.162,8.477
			c3.438-1.001,4.971-9.341,0.932-27.511c-6.986-31.436-34.162-58.232-61.715-35.913c0,0-9.096-8.963-22.119-20.876
			c-1.174-9.983-3.371-30.99-3.303-52.354c0-0.398,0-0.82,0.021-1.219v-1.156c0-0.398,0-0.773,0.021-1.151
			c0.135-9.073,0.621-18.77,1.73-28.683l95.545-43.681c-0.664,2.15-1.264,4.347-1.773,6.544c-0.045,0.177-0.09,0.355-0.111,0.509
			c-0.066,0.201-0.088,0.399-0.133,0.576c-0.045,0.178-0.088,0.355-0.111,0.533c-0.043,0.201-0.088,0.378-0.133,0.576
			c-8.387,39.822,7.986,90.998,13.332,106.083c-20.299,8.055-21.852,37.226-3.926,74.141c24.047,49.603,25.422,26.241,25.422,26.241
			s-6.076-43.456,7.609-43.988c12.912-0.532,40.996,49.227,44.211,55.014h-0.775c-5.943,0-10.826,4.481-10.826,9.964
			c0,5.456,4.883,9.938,10.826,9.938H358.066z"/>
		<line fill="none" x1="254.158" y1="576.773" x2="248.832" y2="579.215"/>
		<line fill="none" x1="153.287" y1="622.896" x2="150.957" y2="623.957"/>
	</g>
</g>
</svg>
